<?xml version="1.0" encoding="UTF-8" standalone="no"?>
<!-- Created with Inkscape (http://www.inkscape.org/) -->

<svg
   version="1.1"
   id="svg1"
   width="512"
   height="512"
   viewBox="0 0 512 512"
   sodipodi:docname="leagueshield.svg"
   inkscape:version="1.4 (86a8ad7, 2024-10-11)"
   xml:space="preserve"
   inkscape:export-filename="mstile-150x150.png"
   inkscape:export-xdpi="28.125"
   inkscape:export-ydpi="28.125"
   xmlns:inkscape="http://www.inkscape.org/namespaces/inkscape"
   xmlns:sodipodi="http://sodipodi.sourceforge.net/DTD/sodipodi-0.dtd"
   xmlns="http://www.w3.org/2000/svg"
   xmlns:svg="http://www.w3.org/2000/svg"><defs
     id="defs1"><rect
       x="18.808163"
       y="289.08844"
       width="475.08026"
       height="72.446259"
       id="rect3" /><rect
       x="32.043537"
       y="226.39456"
       width="450.00272"
       height="115.63537"
       id="rect2" /><clipPath
       clipPathUnits="userSpaceOnUse"
       id="clipPath9"><path
         d="M 0,864 H 1440 V 0 H 0 Z"
         transform="matrix(1.3333333,0,0,-1.3333333,0,1152)"
         id="path9" /></clipPath><clipPath
       clipPathUnits="userSpaceOnUse"
       id="clipPath7"><path
         d="M 540.185,838.08 H 903.148 V 0 H 540.185 Z"
         transform="translate(-597.29002,-342.13961)"
         id="path7" /></clipPath></defs><sodipodi:namedview
     id="namedview1"
     pagecolor="#ffffff"
     bordercolor="#111111"
     borderopacity="1"
     inkscape:showpageshadow="0"
     inkscape:pageopacity="0"
     inkscape:pagecheckerboard="1"
     inkscape:deskcolor="#d1d1d1"
     inkscape:zoom="1.0150849"
     inkscape:cx="221.16377"
     inkscape:cy="243.82197"
     inkscape:window-width="1920"
     inkscape:window-height="974"
     inkscape:window-x="-11"
     inkscape:window-y="-11"
     inkscape:window-maximized="1"
     inkscape:current-layer="layer5"><inkscape:page
       x="0"
       y="0"
       width="512"
       height="512"
       id="page2"
       margin="0"
       bleed="0" /></sodipodi:namedview><g
     inkscape:groupmode="layer"
     id="layer1"
     inkscape:label="Background"><path
       sodipodi:type="star"
       style="fill:#079100;fill-opacity:1;stroke:none;stroke-width:11.3386;stroke-opacity:1"
       id="path1-8"
       inkscape:flatsided="true"
       sodipodi:sides="6"
       sodipodi:cx="259.8313"
       sodipodi:cy="256.3483"
       sodipodi:r1="237.87492"
       sodipodi:r2="206.00572"
       sodipodi:arg1="0.52786366"
       sodipodi:arg2="1.0514624"
       inkscape:rounded="0"
       inkscape:randomized="1.3877788e-16"
       d="M 465.3279,376.16327 258.81679,494.22106 53.320193,374.40609 54.334699,136.53333 260.8458,18.475537 466.34241,138.2905 Z"
       transform="translate(-6.3580734,0.070748)" /><path
       style="fill:#007ce8;stroke-width:11.3386"
       d="m 47.286685,214.26779 0.49257,-77.826 L 254.6585,19.210216 461.53775,138.90464 l -0.98514,76.34829 z"
       id="path4" /></g><g
     inkscape:groupmode="layer"
     id="layer5"
     inkscape:label="Mountain"><path
       style="fill:#ffffff;stroke-width:11.3386"
       d="m 48.271824,217.2232 -1.477709,-22.6582 26.598761,-8.86625 37.065864,-26.1062 24.99791,-2.70913 15.76223,-14.5308 22.6582,-9.85139 9.67667,-1.78485 18.11156,-11.14558 28.21225,-6.61768 18.63401,16.54421 17.58912,2.4381 19.15646,-12.53878 11.66803,0.6966 38.66122,21.07211 18.80817,13.58368 14.62857,0.69659 9.75238,13.23538 24.72925,2.08979 18.45987,13.75783 35.17823,16.02177 0.3483,17.76326 z"
       id="path2"
       sodipodi:nodetypes="ccccccccccccccccccccccc" /><path
       id="path3"
       style="display:inline;fill:#808080"
       d="m 237.05664,110.49949 c -4.89803,-0.47883 -20.93995,1.57452 -27.2168,3.48437 -4.94504,1.50461 -11.24419,4.54451 -12.41015,5.98828 -0.675,0.83583 -2.79788,2.21565 -5.07617,3.30078 -2.1539,1.02588 -4.77743,2.67904 -5.83008,3.67383 -3.36069,3.17598 -3.92586,3.37591 -9.57813,3.37891 -5.93795,0.003 -7.00984,0.35976 -11.07617,3.67773 -2.27696,1.85792 -3.69948,2.56934 -7.5625,3.77735 -5.71508,1.78718 -10.42449,3.42855 -11.26367,3.92578 -0.33756,0.20001 -0.61524,0.96617 -0.61524,1.70312 0,3.74354 -3.62966,7.07537 -11.96875,10.98438 -4.89354,2.29388 -6.99014,3.02754 -9.39843,3.29297 -2.08119,0.22937 -3.75885,0.7408 -5.10547,1.55664 -2.35197,1.42492 -2.50638,1.98403 -0.6543,2.35546 0.74264,0.14894 2.32761,0.55797 3.52344,0.90821 4.28928,1.25625 9.25853,0.39115 13.08008,-2.27735 1.58716,-1.10828 6.0274,-2.48046 8.02734,-2.48046 1.49251,0 3.59387,-1.79817 3.30078,-2.82422 -0.14189,-0.49674 0.44543,-3.11861 1.30469,-5.82618 1.81674,-5.7246 2.62212,-6.44265 6.81055,-6.07421 1.81895,0.16001 2.37304,0.0599 2.37304,-0.42383 0,-0.73371 2.8583,-1.9336 4.60547,-1.9336 1.55378,0 3.51674,2.12922 3.96094,4.29688 0.29971,1.4626 0.1588,1.83653 -1.16602,3.08789 -0.829,0.78302 -1.50023,1.6161 -1.49023,1.85156 0.01,0.23546 0.82,0.98419 1.79883,1.66407 1.43261,0.99508 2.29738,1.23632 4.43359,1.23632 3.09493,0 4.09533,0.39901 6.76172,2.69532 2.56118,2.20571 8.57343,4.29141 13.55859,4.70312 3.06998,0.25354 4.77385,0.7446 9.5293,2.74805 3.20223,1.3491 6.49758,2.43945 7.37109,2.43945 3.11254,0 4.71637,0.58278 6.76368,2.45703 1.13217,1.03648 2.7211,2.04847 3.53125,2.24805 0.81015,0.19958 6.12772,0.40302 11.81836,0.45312 10.01187,0.0881 10.39848,0.12658 11.9082,1.14844 1.82494,1.23522 1.94516,2.22988 0.52734,4.33008 -2.39419,3.54651 -7.90146,4.43653 -13.69726,2.21094 -1.88112,-0.72235 -4.5017,-1.31729 -6.38282,-1.44727 -3.19151,-0.22052 -3.19166,-0.22 -6.05468,2.05664 -1.57467,1.25215 -3.27006,2.27735 -3.76758,2.27735 -0.49752,0 -1.52961,-0.47418 -2.29297,-1.05274 -1.83705,-1.39233 -4.44791,-2.19134 -5.49219,-1.67969 -0.44897,0.21998 -1.24698,0.83465 -1.77148,1.36524 -0.76556,0.7744 -1.30087,0.9104 -2.7168,0.6914 -1.73525,-0.26839 -12.96205,2.32343 -17.18555,3.9668 -0.94518,0.36777 -2.78132,0.81283 -4.08007,0.99024 -2.61946,0.35782 -8.75831,3.73339 -10.51953,5.7832 -1.03025,1.19906 -1.03008,1.19811 3.84765,5.53125 2.68274,2.38322 5.34605,4.63326 5.91797,5 0.86328,0.55356 2.3912,0.61768 9.00391,0.3789 4.38088,-0.15816 10.56743,-0.59875 13.74804,-0.98046 10.41271,-1.24963 15.90207,-2.47406 38.30274,-8.54493 8.13708,-2.20525 21.1995,-4.85038 21.92578,-4.43945 1.01698,0.57541 0.32129,2.64615 -1.49414,4.44922 -1.5034,1.49316 -1.98278,2.38802 -2.25781,4.21875 -0.28384,1.8893 -0.63768,2.52246 -1.89649,3.38867 -1.57981,1.0871 -10.2747,4.65262 -13.82226,5.66797 -1.08021,0.30917 -3.51199,1.29259 -5.40235,2.18555 -3.43702,1.62357 -3.43702,1.62231 0,1.77734 1.89036,0.0853 9.78491,-0.0862 17.54297,-0.38086 14.10557,-0.53575 14.10532,-0.53394 20.13086,0.63477 3.57943,0.69426 8.91522,1.3235 13.14453,1.55078 10.56773,0.56791 10.49825,0.56952 11.67578,-0.18555 1.63387,-1.0477 1.38075,-2.63754 -0.69336,-4.34765 -2.2069,-1.8196 -3.08641,-3.6535 -3.82226,-7.98438 -0.50107,-2.9491 -0.72171,-3.41605 -1.78321,-3.75781 -0.96583,-0.31096 -1.72422,-0.0982 -3.73632,1.04687 -2.09817,1.19407 -2.69787,1.35252 -3.54493,0.9375 -4.2028,-2.05919 0.0796,-6.18402 9.16016,-8.82226 4.06391,-1.18072 6.11827,-0.97963 9.24609,0.90429 1.45665,0.87735 3.85169,2.32161 5.32422,3.20899 1.47253,0.88737 4.06896,2.76856 5.76953,4.18164 1.70057,1.41308 3.94794,3.0443 4.99219,3.625 1.04426,0.58071 2.85624,1.81621 4.02735,2.74414 1.1711,0.92792 2.8578,1.89303 3.74804,2.14453 2.21458,0.62565 10.15209,1.62648 10.48438,1.32227 0.14803,-0.13552 -0.52068,-1.02724 -1.48633,-1.98243 -4.12908,-4.08437 -2.21693,-6.00373 3.45117,-3.46289 2.24911,1.00822 2.86317,1.11544 3.89844,0.6836 1.5294,-0.63795 1.56473,-1.6265 0.10351,-2.91211 -3.42291,-3.01152 -7.43321,-9.83112 -9.83203,-16.72266 -1.70444,-4.8967 -4.5919,-12.87551 -4.97656,-13.75 -0.22275,-0.50641 0.51499,-1.33404 2.53125,-2.83984 4.14208,-3.09342 8.97852,-7.49954 9.76953,-8.89844 0.8786,-1.55381 0.87317,-2.80321 -0.0156,-3.47851 -0.56391,-0.42845 -0.8196,-0.33457 -1.29492,0.47851 -1.94039,3.31923 -7.34203,7.07112 -11.13672,7.73438 -1.59576,0.27892 -1.59571,0.27856 -1.59571,-2.19532 0,-1.86476 0.36856,-3.14299 1.49805,-5.1914 1.15229,-2.08976 1.46355,-3.19229 1.34961,-4.77539 -0.14817,-2.05863 -0.14887,-2.05995 -1.6875,-0.8711 -0.87101,0.673 -2.12757,2.45893 -2.89649,4.11524 -1.55034,3.33956 -2.50414,3.70223 -4.15624,1.57812 -1.31041,-1.68474 -1.00584,-2.72799 1.5371,-5.27148 1.27779,-1.27807 1.9004,-2.32224 1.9004,-3.18555 0,-1.97464 -0.40066,-1.95222 -2.50196,0.13477 -1.0683,1.06102 -2.6323,2.19035 -3.47461,2.50976 -1.40294,0.532 -1.60666,0.49451 -2.4414,-0.44922 -0.50116,-0.56661 -0.91211,-1.31853 -0.91211,-1.66992 0,-0.3514 -0.34211,-1.38761 -0.75977,-2.30273 -0.53063,-1.16263 -0.87828,-1.487 -1.1543,-1.07813 -0.45464,0.67345 0.23261,4.5884 1.16211,6.625 0.66453,1.45604 4.59266,6.38529 5.85157,7.3418 0.40609,0.30854 1.11257,1.59381 1.57031,2.85547 0.83225,2.29392 0.83309,2.29328 -0.70899,3.55469 -1.54208,1.26141 -1.54218,1.26079 0.96094,3.56445 4.03346,3.71209 5.00831,7.13395 2.61328,9.16601 -2.49912,2.12037 -7.55691,2.03674 -8.52929,-0.14062 -0.47654,-1.06707 -1.62741,-2.69514 -6.14844,-8.69141 -1.40053,-1.85753 -4.71744,-3.52343 -7.01367,-3.52343 -2.11956,0 -2.2558,0.46609 -0.84766,2.89062 1.55258,2.67284 1.55498,3.99693 0.01,4.92383 -1.69536,1.01697 -2.4631,0.93351 -7.83789,-0.84766 -6.32079,-2.09464 -8.928,-2.11723 -11.44922,-0.0977 -1.01347,0.81182 -2.72643,2.05253 -3.80664,2.75586 -1.0802,0.70333 -2.44761,1.79606 -3.03907,2.42968 -1.07538,1.15202 -1.07549,1.15335 -1.41015,-1.15625 -0.18406,-1.27027 -0.69506,-2.75556 -1.13477,-3.29882 -1.69339,-2.09219 -3.0048,-3.10547 -4.01758,-3.10547 -0.57908,0 -1.74864,-0.29355 -2.59961,-0.65235 -0.85097,-0.3588 -3.34021,-0.95486 -5.53125,-1.32617 -2.19103,-0.3713 -4.76818,-1.10042 -5.72851,-1.61914 -1.69897,-0.91771 -1.75513,-1.03694 -2.07813,-4.4043 -0.35393,-3.68984 -2.08787,-7.99582 -3.40625,-8.45898 -1.33407,-0.46867 -2.89085,0.18878 -5.91601,2.5 -1.62031,1.23791 -3.22298,2.25767 -3.56055,2.26367 -0.43709,0.008 -0.60866,-0.92714 -0.59765,-3.24805 0.0127,-2.69304 0.26815,-3.72605 1.47265,-5.94531 1.77341,-3.2675 1.78095,-3.63508 0.16992,-7.87695 -1.41001,-3.71255 -1.6735,-7.31036 -0.96289,-13.0918 0.35844,-2.91624 0.26817,-3.88669 -0.59961,-6.51758 -0.5608,-1.70022 -1.29224,-4.4562 -1.625,-6.125 -0.33276,-1.6688 -0.84193,-3.05753 -1.13281,-3.08593 z m 52.48828,5.71679 c -0.49541,-0.0165 -0.99979,0.005 -1.52344,0.0684 -3.14189,0.38022 -6.96469,2.26785 -13.5664,6.47071 -4.5726,2.91102 -4.96391,3.07835 -7.18555,3.07812 -3.20024,-3.2e-4 -11.20197,-2.93423 -12.79492,-4.69141 -0.66582,-0.73446 -5.43519,-3.09129 -5.72266,-2.82812 -0.29314,0.26837 3.8919,3.97594 5.17188,4.58203 0.69376,0.3285 1.99232,1.43047 2.88476,2.44727 0.89245,1.0168 2.32852,2.14906 3.19141,2.51757 2.59476,1.10812 5.66876,2.78606 6.50195,3.54883 0.98019,0.89732 1.88891,0.91272 2.67383,0.0469 1.32839,-1.46535 6.89075,-4.61083 14.1875,-8.02539 0.97586,-0.45666 2.35916,-1.33505 3.07422,-1.95118 1.30012,-1.12024 1.2993,-1.11986 6.13672,-0.37304 2.66057,0.41076 5.30963,1.02484 5.88672,1.36523 0.57709,0.34039 2.19568,1.82522 3.5957,3.29883 1.42995,1.50512 3.12051,2.81057 3.85938,2.97852 3.87313,0.88039 8.74088,3.10618 11.2246,5.13281 1.73641,1.41684 3.50142,2.3969 4.98243,2.76758 1.26156,0.31576 4.67249,1.6714 7.58007,3.01171 4.16724,1.92097 5.7268,2.91394 7.36524,4.69336 1.14318,1.24155 3.5142,3.10811 5.26953,4.14844 1.75534,1.04033 4.87907,3.32482 6.94141,5.07617 2.06235,1.75136 4.2051,3.40696 4.76172,3.67969 0.67428,0.33036 2.87359,0.3993 6.58789,0.20508 6.50469,-0.34011 7.35728,-0.0793 8.73828,2.67578 0.51798,1.03333 2.01352,3.56281 3.32226,5.61914 2.01954,3.17318 2.7768,3.94492 5.00391,5.10938 3.77698,1.97483 4.73587,2.15002 13.99023,2.54882 7.1085,0.30632 8.65351,0.50347 10.40821,1.33204 1.13323,0.53511 2.24325,1.27297 2.46679,1.63867 0.22355,0.36569 2.29349,2.54219 4.59961,4.83593 2.30612,2.29376 4.73036,5.05175 5.38672,6.12891 1.46629,2.40633 3.47798,3.40036 11.50977,5.6875 7.5942,2.16252 8.28307,2.50219 14.80664,7.32227 3.0124,2.22578 6.43597,4.55098 7.60937,5.16601 1.1734,0.61503 6.44299,2.24867 11.70899,3.63086 0.10966,0.0288 0.26101,0.074 0.37304,0.10352 v -9.6875 c -0.81276,-0.28532 -1.40388,-0.55693 -2.52734,-0.88477 -1.86017,-0.54282 -4.17458,-1.47984 -5.14258,-2.08203 -0.96801,-0.60219 -2.87089,-1.42926 -4.22851,-1.83789 -1.35762,-0.40863 -3.36751,-1.3046 -4.46485,-1.99023 -1.09734,-0.68562 -2.84803,-1.39287 -3.89257,-1.57227 -1.35112,-0.23205 -2.76768,-1.06563 -4.90821,-2.88867 -3.58269,-3.0513 -6.14011,-4.47583 -10.94726,-6.10156 -1.96691,-0.66519 -3.78648,-1.57158 -4.04493,-2.01368 -0.25844,-0.4421 -1.54533,-1.12972 -2.85937,-1.52929 -2.67731,-0.81411 -3.91315,-1.86214 -5.40039,-4.57618 -0.55896,-1.02002 -1.74353,-2.29003 -2.63281,-2.82226 -7.21495,-4.31805 -5.74828,-3.93598 -16.21094,-4.22461 -10.79991,-0.29793 -15.04531,-0.96181 -16.56836,-2.5918 -1.56996,-1.6802 -2.76632,-3.99329 -3.47266,-6.71093 -1.09928,-4.22943 -1.19933,-4.26954 -10.46289,-4.26954 -7.89822,0 -8.02676,-0.017 -10.0332,-1.23242 -1.11786,-0.67716 -2.53835,-1.86288 -3.15625,-2.63476 -0.6179,-0.77187 -3.18067,-2.71953 -5.69531,-4.32813 -2.61768,-1.67452 -5.05931,-3.62921 -5.71094,-4.57422 -1.8893,-2.73993 -8.01777,-6.34856 -14.23438,-8.38086 -2.62082,-0.85679 -3.09332,-1.19877 -3.92578,-2.84179 -0.79615,-1.57137 -1.30262,-1.96632 -3.1914,-2.49219 -1.23484,-0.34379 -3.46004,-1.12312 -4.94532,-1.73047 -1.48528,-0.60736 -3.72097,-1.4408 -4.96679,-1.85352 -1.24582,-0.41268 -3.59607,-1.85587 -5.22461,-3.20507 -2.41564,-2.00128 -3.44625,-2.53668 -5.5918,-2.91407 -1.44645,-0.25443 -3.74156,-0.66746 -5.09961,-0.91601 -0.4869,-0.0891 -0.97334,-0.14364 -1.46875,-0.16016 z m -66.67773,3.85742 c 1.12163,0.12096 1.71531,0.82049 3.93164,4.63672 1.43583,2.4723 3.05692,5.25337 3.60156,6.17969 1.57261,2.67469 1.7553,5.24093 0.53125,7.4375 -1.16183,2.08492 -1.35525,4.48025 -0.7832,9.66406 0.38025,3.44581 0.36347,3.52354 -1.00586,4.83203 -0.76548,0.73146 -1.66421,1.33008 -1.99805,1.33008 -1.00974,0 -3.6289,2.27082 -3.62891,3.14649 10e-6,0.74348 -2.55657,3.14348 -3.35156,3.14648 -0.18182,7.1e-4 -0.7724,0.6074 -1.3125,1.34766 -1.08892,1.49248 -2.35513,1.67857 -4.05078,0.5957 -0.88052,-0.56231 -1.10547,-1.13493 -1.10547,-2.82422 0,-3.10467 1.34803,-10.80008 2.02149,-11.54297 0.74728,-0.82432 0.21652,-10.16633 -0.77149,-13.58203 -0.82366,-2.84749 -0.53511,-3.75478 1.86914,-5.86328 1.47518,-1.29371 3.29548,-4.49627 4.44922,-7.83008 0.19977,-0.57726 0.66977,-0.77454 1.60352,-0.67383 z m -25.72266,3.96289 c 2.77664,2e-5 3.95057,4.81258 1.33008,5.45313 -4.56123,1.11495 -5.64844,1.57723 -6.18359,2.63672 -1.90392,3.76943 -2.5243,4.47046 -6.375,7.19336 -2.27259,1.607 -4.96071,3.27109 -5.97461,3.69726 -2.17219,0.91303 -5.75883,1.01587 -7.49024,0.2168 -1.50678,-0.69539 -1.77864,-2.06792 -0.76562,-3.86133 0.42146,-0.74614 0.76562,-2.08973 0.76562,-2.98633 0,-1.21489 0.37767,-1.97704 1.48438,-2.99023 1.42333,-1.303 1.6436,-1.35533 5.27929,-1.25391 2.0863,0.0582 4.15087,0.078 4.58789,0.0449 0.43701,-0.0331 2.31541,-1.43696 4.17383,-3.11914 3.49409,-3.16277 6.89966,-5.03125 9.16797,-5.03126 z m 52.11133,1.34766 c -1.30179,0 -1.6479,1.09241 -0.47656,1.50391 0.39232,0.13782 1.12044,1.01768 1.61914,1.95703 1.75228,3.30062 3.75612,6.22153 5.49023,8.00195 0.9632,0.98892 2.41445,3.0628 3.22461,4.60742 0.81015,1.54461 1.61231,2.80804 1.78125,2.8086 0.74371,0.002 5.83008,-2.27237 5.83008,-2.60742 0,-0.20456 -0.75369,-0.69987 -1.67383,-1.10157 -1.23608,-0.53964 -1.76342,-1.11931 -2.01758,-2.21875 -0.57475,-2.48625 -2.04196,-4.19182 -5.89062,-6.84375 -2.02201,-1.39328 -3.67578,-2.71517 -3.67578,-2.9375 0,-0.85852 -3.07056,-3.16992 -4.21094,-3.16992 z m -137.7832,33.40234 c -0.14782,-0.0392 -0.50153,0.12056 -1.1875,0.44532 -0.7818,0.37012 -1.86289,1.12796 -2.40235,1.68359 -0.53947,0.55563 -2.05043,1.78913 -3.35742,2.74219 -2.37635,1.73283 -2.37587,1.73242 -8.111328,1.73242 -5.735455,0 -5.73595,3.1e-4 -9.408203,1.98047 -4.962119,2.67567 -7.056819,4.41434 -12.535156,10.39844 -2.566524,2.80347 -5.489014,5.68488 -6.494141,6.40429 -3.993152,2.85804 -8.498912,4.96048 -12.277343,5.72657 -0.945127,0.19162 -1.699708,0.38885 -2.501953,0.58398 v 3 c 1.293726,-0.4564 2.542002,-0.54965 5.134765,-0.69141 4.623628,-0.25279 5.204135,-0.39593 8.820313,-2.18164 3.735505,-1.84463 4.033522,-1.91355 8.552734,-1.97265 4.110029,-0.0537 5.028369,0.0852 7.498047,1.1289 1.547612,0.65403 4.72215,1.51587 7.054687,1.91602 4.98404,0.855 5.912015,1.33692 8.025391,4.17187 1.543203,2.0701 1.68651,2.14461 5.591797,2.89258 2.20491,0.4223 7.43232,1.59825 11.61523,2.61133 8.90405,2.15653 16.92789,3.14779 18.87891,2.33399 1.163,-0.48513 1.24533,-0.69276 0.95898,-2.44727 -0.43664,-2.67542 -3.55777,-11.49159 -4.26953,-12.06055 -0.32312,-0.25829 -2.31151,-1.46946 -4.41797,-2.6914 -2.8404,-1.64772 -4.01304,-2.62442 -4.54101,-3.78125 -1.53345,-3.35991 -0.36505,-6.4098 2.93945,-7.67383 0.83727,-0.32027 3.17487,-0.72183 5.19532,-0.89258 2.74487,-0.23197 4.60386,-0.72345 7.35546,-1.94141 3.68252,-1.63002 3.68329,-1.6299 -0.49023,-1.93359 -5.98521,-0.43552 -13.20538,-1.55364 -15.32813,-2.375 -1.00402,-0.38849 -2.94714,-0.70703 -4.31836,-0.70703 -1.97118,0 -2.73806,-0.22436 -3.6621,-1.07031 -1.35937,-1.24449 -2.76794,-5.16739 -2.36329,-6.58399 0.1345,-0.47085 0.19274,-0.70888 0.0449,-0.74805 z m 244.375,14.70118 c -0.44105,-0.15451 -1.3789,0.28272 -1.83008,1.00586 -0.92576,1.48379 -0.7389,9.74658 0.30469,13.45117 0.82057,2.91289 0.81592,3.08548 -0.16211,5.98437 -0.92892,2.75332 -0.94918,3.1109 -0.26172,4.61719 1.17075,2.5652 2.99927,4.47512 5.91992,6.18555 2.23557,1.30922 3.31357,1.62714 6.31445,1.85937 4.62911,0.35823 5.08333,0.60351 4.35938,2.35938 -0.39637,0.96143 -0.40195,1.39366 -0.0215,1.50976 0.29318,0.0895 0.62721,1.51489 0.74219,3.16797 0.20905,3.00561 0.21003,3.00621 29.49023,2.9707 16.10411,-0.0195 29.05912,-0.11273 28.78907,-0.20703 -0.27006,-0.0943 -4.46915,-1.30835 -9.33008,-2.69921 -10.53478,-3.01434 -13.24325,-4.03095 -14.43164,-5.41407 -0.4911,-0.57157 -2.26418,-1.87192 -3.93945,-2.89062 -1.67527,-1.01871 -3.16756,-2.14805 -3.31836,-2.50781 -0.50695,-1.20945 -4.28433,-2.7879 -12.18946,-5.09376 -8.77885,-2.56071 -16.25244,-5.89038 -17.39258,-7.75 -0.64983,-1.05989 -0.6307,-1.36618 0.1875,-3.02734 1.32158,-2.68304 0.68403,-3.54451 -4.80859,-6.5039 -4.08179,-2.19925 -8.18359,-5.53437 -8.18359,-6.6543 0,-0.19433 -0.0913,-0.31178 -0.23828,-0.36328 z m -53.78125,2.74414 c 3.38329,0.13344 4.96018,0.91977 9.39062,3.57812 3.31459,1.98882 3.88298,2.18859 5.06445,1.77735 1.87983,-0.65431 5.92296,-0.5756 7.78907,0.15234 0.86899,0.33898 2.09585,1.12929 2.72656,1.75586 1.14331,1.13581 1.14398,1.14085 0.12305,1.4375 -2.22499,0.6465 -0.76008,3.13495 2.13867,3.63281 1.57733,0.2709 1.68244,0.41048 2.15625,2.87305 0.7427,3.86006 0.26158,6.20827 -1.43555,7.01172 -1.98752,0.94093 -5.26365,0.80569 -7.74414,-0.31836 -1.1779,-0.53377 -4.38129,-2.91303 -7.11914,-5.28711 -2.73785,-2.37408 -5.97227,-5.0472 -7.1875,-5.94141 -5.81264,-4.27712 -10.40481,-4.80023 -16.26758,-1.85156 -0.46763,0.23519 -3.40088,-2.58686 -3.875,-3.72852 -1.32466,-3.18968 1.85624,-4.78398 10.08203,-5.05273 1.70214,-0.0556 3.03044,-0.0835 4.15821,-0.0391 z m -49.82618,40.85156 c -107.43495,0 -163.251937,0.0326 -199.042964,0.18555 v 3.67578 c 35.791027,0.1529 91.608014,0.18555 199.042964,0.18555 115.24094,0 173.89906,-0.024 208.3125,-0.2129 v -3.62109 c -34.41344,-0.18885 -93.07156,-0.21289 -208.3125,-0.21289 z" /></g><g
     inkscape:groupmode="layer"
     id="layer2"
     inkscape:label="Doug"><g
       id="g8"
       clip-path="url(#clipPath9)"
       transform="matrix(0.18895556,0,0,0.18215552,79.582329,30.348779)"><path
         d="M 0,0 C 4.16,-3.6 9.59,0.88 8.47,7.261 6.95,8.91 4.34,8.561 3.63,6.4 3.87,4.03 2.57,3.2 0.52,3.11 -0.13,2.561 -0.02,1.23 0,0 m 25.75,71.021 c 0.48,1.929 -1.63,4.679 -2.77,5.019 -4.89,1.42 -6.81,-2.449 -11.4,-1.21 -0.17,2.04 -2.3,4.4 -4.49,4.141 -2.55,-0.29 -3.14,-4.601 -3.46,-7.431 0.72,-1.399 2.2,-2.05 4.67,-1.72 0.77,-0.82 2.01,-0.469 3.28,-0.7 0.59,-0.099 1.05,-0.599 1.55,-0.689 2.1,-0.351 6.26,-0.41 8.47,0 0.26,0.049 0.66,0.58 1.21,0.689 1.62,0.34 2.69,0.92 2.94,1.901 m 9.68,75.689 c 1.05,0.61 2.67,0.66 3.11,1.9 -1.51,2.1 -8.48,7.39 -9.68,2.07 -0.22,-0.94 0.15,-1.7 0,-2.93 0.83,-0.439 1.6,-0.93 2.59,-1.209 -0.19,-2.891 4.14,-2.141 3.98,0.169 m 9.67,152.061 c 0.26,1.569 -1.11,2.159 -1.9,2.939 -0.91,0.92 -1.74,2.59 -3.45,1.73 -1.94,-1.99 -4.16,-3.68 -6.57,-5.18 -0.6,-0.84 -0.83,-2.05 -0.69,-3.63 0.36,-0.22 0.65,-0.51 0.86,-0.87 1.19,0.19 2.64,-0.239 3.98,0 0.46,0.091 0.91,0.571 1.38,0.7 0.52,0.13 1.22,-0.109 1.73,0 2.21,0.48 4.48,3.23 4.66,4.311 M 59.96,259.89 c 1.47,1.131 2.65,2.55 2.42,5.36 -2.29,1.15 -5.16,0.84 -6.91,-0.689 v -3.111 c 1.08,-0.929 2.17,-1.86 4.49,-1.56 m 6.74,108.87 c -0.42,1.83 0.95,2.06 0.87,3.45 -0.07,0.88 -0.95,1.86 -1.39,1.91 -1.34,0.13 -1.22,-1.75 -2.07,-2.769 0.38,-0.721 0.92,-1.27 0.69,-2.591 0.36,-0.27 1.54,-0.27 1.9,0 m 6.22,-129.6 c 0.18,0.3 -0.45,1.27 -0.69,1.73 -2.06,0.56 -2.98,-0.74 -2.24,-2.42 0.89,-0.25 2.94,-0.51 2.93,0.69 m 7.61,157.25 c 1.24,-2.99 4.01,-4.829 5.7,-1.389 -0.69,1.33 -1.74,2.299 -2.77,3.29 -0.44,0.679 -1.06,2.27 -1.72,3.279 -0.8,1.21 -2.95,0.971 -3.29,-0.52 -0.46,-2.02 1.61,-3.549 2.08,-4.66 m 5.53,-536.55 c 1.62,4.72 -7.32,4.04 -6.91,0.691 0.25,-2.111 5.64,-2.561 6.91,-0.691 m 6.39,173.67 c -1.12,1.401 -3.1,3.97 -5.36,4.321 -2.41,0.359 -2.47,-1.17 -4.32,-2.08 -3.98,2.879 -6.73,-4.531 -3.8,-7.081 h 9.68 c 1.58,1.3 2.99,2.77 3.8,4.84 m -1.9,163.81 c 0.22,1.261 1.21,2.25 0.69,3.63 -0.8,0.7 -1.47,2.44 -3.11,1.73 -1.53,-2.05 -6.11,-3.83 -6.74,-6.22 -0.51,-1.919 0.4,-3.55 1.9,-4.32 3.31,0.07 6.55,-0.599 7.26,2.07 0.25,0.97 -0.19,2.07 0,3.11 m 2.94,144.46 c -0.46,0.29 -1.19,1.281 -2.08,1.38 -1.59,0.19 -2.27,-0.869 -3.62,-1.38 -0.27,-0.09 -0.76,0.1 -1.04,0 -1.59,-0.52 -3.34,-1.68 -3.8,-2.239 -0.73,-0.871 -0.99,-2.371 -0.87,-3.811 -0.87,-1.169 -2.19,-3.39 -0.52,-4.66 2.51,-0.15 4.78,-0.049 6.05,1.03 v 5.02 c 1.67,1.83 5.52,1.5 5.88,4.66 M 94,44.761 c 0.49,0.519 1.58,3.119 1.56,3.63 -0.07,1.519 -1.56,1.929 -2.59,2.589 -1.31,0.84 -2.86,2.92 -5.01,2.071 -1.03,-0.83 -0.77,-2.561 -2.25,-2.931 -0.81,-0.21 -1.38,0.38 -2.07,0.34 -2.75,-0.17 -3.33,-2.76 -2.94,-6.22 2.09,-1.87 7.23,-0.719 10.89,-1.04 0.55,0.691 1.79,0.88 2.41,1.561 m 5.88,179.709 c -1.07,1.58 -0.47,4.83 -1.73,6.22 -0.69,0.3 -1.83,0.141 -2.76,0.17 -2.08,-1.95 -4.59,-3.48 -3.98,-8.12 -0.64,-1.92 -3.11,-3.59 -2.76,-6.05 0.3,-2.129 2.49,-3.62 5.35,-3.62 2.92,2.85 4.51,7.011 5.88,11.4 m 0,13.31 c 0.46,2.48 -0.95,3.08 -2.07,3.97 -3.37,-0.82 -9.02,1.22 -10.54,-0.169 -2.05,-1.871 -4.79,-4.54 -4.5,-8.641 0.75,-1.2 1.69,-2.23 3.98,-1.899 1.08,0.75 1.04,2.649 2.07,3.449 0.89,0.38 2.46,0.08 3.63,0.18 1.29,0.57 0.96,2.46 2.42,2.931 1.48,0.489 3.21,-0.491 5.01,0.179 M 99.19,96.771 c 0.24,2.27 1.1,3.849 0.69,6.049 -0.26,1.38 -1.18,3.32 -0.69,5.531 -2.93,2.109 -4.47,-1.881 -7.95,-1.381 -0.78,0.551 -1.06,1.58 -1.73,2.24 -4.57,0.871 -6.17,-1.79 -8.29,-3.28 -1.2,-0.84 -1.81,-0.82 -2.07,-1.56 -0.86,-2.349 0.3,-5.32 1.03,-6.73 0.85,-1.65 3.01,-2.52 4.49,-3.63 1.18,-0.89 1.99,-2.13 3.12,-2.6 5.28,0.3 8.62,2.55 11.4,5.361 m 15.72,111.979 c 1.24,1.24 1.8,3.15 1.56,5.87 -0.71,1.58 -3.38,2.731 -4.15,0.52 0.17,-1.97 -0.37,-4.63 0.35,-6.05 0.44,-0.42 1.36,-0.36 2.24,-0.34 m 5.88,41.99 v 0.69 c -1.39,0.37 -6.15,1.22 -6.05,-1.04 1.74,-1.349 4.27,0.11 6.05,0.35 m 3.97,71.54 c 1.57,0.15 2.71,0.741 2.42,2.761 -0.87,0.399 -1.43,1.109 -2.93,0.859 -1.68,1.161 -2.9,3.67 -6.05,2.77 -0.35,-3.06 -3.24,-3.56 -3.63,-6.569 0.94,-2.111 4.86,-1.241 6.22,-2.941 0.17,-1.3 0.67,-2.49 1.73,-2.41 2.22,0.16 0.31,4.73 2.24,5.53 m 18.32,-217.73 c 0.98,4.62 -4.9,5.241 -6.91,2.93 -0.691,-4.189 4.82,-4.99 6.91,-2.93 m 0.35,-60.65 c 7.02,-1.04 5.45,9.63 1.03,10.54 -2.56,0.52 -5.74,-0.089 -8.64,-0.52 -2.72,2.24 -7.27,4.46 -12.44,3.11 -0.29,-1.79 -0.28,-4.78 0,-6.57 1.06,-0.38 2.8,-0.069 4.15,-0.17 2.81,-0.81 3.74,-3.519 5.18,-5.699 4.59,-0.83 4.55,3.829 8.81,2.76 0.61,-1.191 0.97,-2.601 1.91,-3.451 m 1.549,323.48 c 1.031,0.701 2,1.44 2.421,2.76 -0.66,1.421 -1.97,2.191 -4.32,1.901 -1.01,1.48 -6.7,5.639 -6.22,-0.341 2.64,-1.51 4.95,-3.34 8.119,-4.32 m -2.25,-78.63 c 2.861,1.59 5.231,3.65 6.571,6.74 -1.15,3.93 -3.92,6.23 -9.33,5.88 -0.63,-0.46 -1.21,-0.98 -1.73,-1.559 0.9,-4.071 -2,-4.331 -3.63,-5.871 v -2.6 c -0.54,-0.61 -0.72,-1.58 -0.86,-2.59 -0.86,-1.649 -2.39,-1.75 -1.9,-3.97 0.6,-2.79 3.92,-0.66 4.66,0.34 1.06,1.441 1.19,3.26 2.42,3.63 1.14,0.351 2.9,-0.26 3.799,0 m 8.641,-494.38 c -0.22,0.24 -0.82,0.24 -1.03,0 -0.05,-0.319 0.19,-0.38 0.17,-0.689 0.56,-0.04 0.83,0.21 0.86,0.689 m -6.391,198.891 c 1.911,0.809 6.631,0.33 6.571,2.599 -0.02,0.491 -1.17,1.571 -1.73,1.72 -3.06,0.87 -6.83,-1.14 -10.19,-0.689 -4.17,-1.641 -1.96,-8.101 3.97,-6.221 0.94,0.381 0.629,2.02 1.379,2.591 M 160.01,196.48 c 2.06,0.71 3.05,7.17 -0.86,6.561 -1.19,0.77 -1.63,2.299 -2.59,3.29 h -2.94 c -1.04,1.149 -2.75,4.25 -4.49,2.069 0.099,-5.37 1.44,-9.5 4.49,-11.92 2.69,-0.149 3.94,-0.72 6.39,0 m 1.73,195.26 v 1.04 c -2.6,0.04 -4.761,0.54 -6.39,1.551 -0.85,-0.451 -1.43,-1.031 -2.94,-0.691 -1.15,0.27 -3.36,2.671 -4.84,2.77 -3.06,0.2 -2.2,-3.96 -0.52,-4.84 1.99,0.201 2.96,-0.62 2.77,-2.59 1.25,-1.52 3.5,-2.03 6.57,-1.73 2.17,1.101 1.74,4.811 5.35,4.49 M 166.93,5.88 v 2.25 c -1.47,1.28 -2.59,3.62 -4.32,5.011 -1.19,0.939 -2.28,1.13 -2.77,2.42 -0.22,0.559 -0.03,1.109 -0.17,1.719 -0.08,0.34 -0.6,0.79 -0.691,1.21 -0.469,2.26 -1.25,2.83 -2.069,4.5 -0.66,1.311 -1.06,2.62 -1.56,3.97 -2.89,3.16 -6.6,5.49 -10.71,7.431 -3.84,0.609 -5.31,3.569 -8.3,5.009 h -1.9 c -0.9,0.92 -2.3,0.781 -3.461,1.56 -0.669,0.45 -1.059,1.381 -1.719,1.9 -1.36,1.04 -3.09,1.87 -4.5,2.76 -2.08,1.32 -4.17,2.181 -6.39,1.04 -2.34,-1.2 -3.61,-1.25 -3.11,-4.67 1.21,-1.49 2.8,-2.599 4.84,-3.28 3.7,-2.92 8.9,-5.67 11.58,-9.68 0.45,-0.679 1.59,-2.67 1.549,-3.63 -0.079,-1.75 -3.229,-4.339 -5.179,-4.83 -1.88,-0.469 -2.74,-0.15 -4.321,-0.69 -2.159,-0.739 -3.669,-1.93 -4.149,-3.81 0.76,-4.13 4.14,-8.65 8.64,-9.67 0.37,-0.089 1.03,0.08 1.55,0 0.959,-0.15 1.63,-0.75 2.42,-0.69 1.24,0.07 2.539,1.08 3.81,1.381 h 21.08 C 158.32,3.83 164.4,3.73 166.93,5.88 m 4.84,133.75 c 0.98,1.391 1.83,3.76 1.38,6.04 -1.48,-0.51 -2.29,1.4 -3.46,1.73 -2.64,0.74 -4.59,-0.54 -6.22,-1.549 -1.75,0.009 -2.64,-0.821 -3.63,-1.56 -0.39,-6.44 6.59,-4.651 11.93,-4.661 m 4.32,-105.239 c 0.62,3.849 -2.45,5.509 -6.75,5.009 -1.88,1.911 -6.05,1.941 -5.18,-2.42 0.43,-0.37 1.069,-0.54 1.38,-1.03 3.61,0.611 3.83,-4.55 6.23,-4.67 2.03,-0.099 2.56,2.39 4.32,3.111 m 17.62,277.349 c 1.95,0.31 2.18,3.1 3.46,4.49 -1.64,2.291 -4.15,3.69 -7.09,4.66 h -7.43 c -1.24,-1.11 -4.33,-0.39 -5.53,-1.55 v -1.73 c 0.7,-1.25 3.13,-0.79 5.01,-0.86 1.18,-0.55 2.02,-1.439 3.8,-1.39 1.03,-0.759 2.13,-1.19 3.12,-1.72 1.23,-0.68 3.4,-2.11 4.66,-1.9 M 208.57,-4.84 c 0.22,1.09 -0.6,1.13 -0.86,1.731 -2.49,-0.231 -2.54,1.96 -3.981,2.769 -2.139,0.651 -9.859,2.78 -8.979,-1.559 0.07,-0.361 0.4,-0.571 0.69,-1.031 4.57,-0.32 7.6,-3.11 13.13,-1.91 m 2.08,100.58 c 1.74,-0.26 2.11,2.62 1.38,4.14 -3.18,0.88 -3.1,-3.89 -1.38,-4.14 m 5.7,39.39 c 1.24,0.951 3.72,0.681 3.629,2.42 -0.099,1.761 -3,2.07 -5.709,1.9 -2.291,-1.51 -6.13,-1.47 -10.02,-1.38 -1.29,-1.27 -2.521,-3.44 -1.9,-6.049 3.83,0.31 7.86,0.439 12.1,0.349 0.73,0.82 1.2,1.91 1.9,2.76 M -0.86,102.65 c -0.47,-0.12 -1.15,0.09 -1.73,0 -0.69,-0.12 -1.22,-0.589 -1.9,-0.69 -1.47,-0.22 -3.17,0.16 -4.84,0 -1.75,0.831 -3.51,1.36 -5.53,0.69 -1.24,-1.06 -1,-2.16 -2.25,-2.77 -1.17,-0.56 -2.36,0.19 -3.8,0 -1.55,-0.2 -2.31,-1.48 -3.28,-2.24 -0.84,-0.44 -2.2,-0.21 -3.45,-0.7 -0.93,-0.35 -1.31,-1.2 -2.08,-1.379 -1.83,-0.401 -3.43,0.529 -4.67,0.689 -0.64,0.09 -1.32,-0.14 -1.9,0 -0.52,0.13 -0.84,0.59 -1.38,0.69 -1.83,0.36 -3.86,0.36 -5.53,0.7 -0.74,0.14 -1.29,0.6 -1.9,0.691 -1.01,0.139 -2.4,-0.151 -3.11,0 -0.55,0.109 -1,0.659 -1.73,0.859 -1.51,0.42 -3.3,0.411 -4.66,0.871 -4.37,1.449 -2.68,7.419 2.42,7.25 1.14,0.639 1.25,1.819 2.24,2.589 2.54,1.98 7.57,0.31 11.58,0.871 4.46,2.909 7.48,7.259 15.55,6.56 2.99,2.949 6.48,5.379 10.54,7.259 5.33,0.81 8.86,2.88 12.62,5.011 1.11,0.639 2.2,1.25 3.28,1.899 1.09,0.67 2.05,1.59 3.11,2.25 3.69,2.311 8.14,3.24 11.75,6.05 1.1,1.15 2.05,2.45 3.46,3.281 1.39,0.21 2.44,0.789 3.63,1.21 0.33,0.939 0.1,2.429 0.17,3.629 -1.4,2.3 -6.14,1.24 -7.43,3.63 -0.04,0.94 1.13,1.58 1.56,2.59 0.15,0.39 -0.05,1.18 0.17,1.73 0.22,0.59 0.6,0.691 0.69,1.211 0.14,0.839 -0.16,1.779 0,2.589 0.21,1.13 1.17,1.86 1.04,2.94 -0.16,1.181 -4.49,4.241 -5.88,4.15 -1.3,-0.09 -1.78,-1.55 -2.94,-2.77 -1.39,-1.46 -2.83,-2.17 -3.28,-4.15 -4.8,-0.44 -7.16,-6.36 -12.1,-7.43 -0.56,-0.119 -1.26,0.12 -1.9,0 -2.05,-0.36 -3.96,-1.869 -6.56,-1.38 -1.34,0.25 -2.66,1.7 -4.32,2.071 -0.64,0.149 -1.47,-0.121 -2.08,0 -1.11,0.239 -2.19,1.19 -3.97,0.699 -0.49,-0.259 -0.69,-0.82 -1.56,-0.699 -0.83,-2.571 -3.3,-3.5 -4.66,-5.531 -1.2,-0.46 -2.26,-1 -3.46,-1.9 -0.89,-0.67 -1.37,-1.96 -2.59,-1.899 -2.42,0.129 -1.54,3.929 -2.59,6.049 0.68,2.89 2.14,5 4.49,6.221 3.92,1.739 7.6,3.389 11.06,5.529 1.9,1.19 3.71,2.031 6.39,2.08 0.78,1.23 0.01,4.01 0.52,5.52 1.75,0.73 3.55,1.411 4.67,2.77 4.34,1.65 11.42,0.55 17.1,0.86 0.76,0.57 1.37,1.281 2.42,1.56 0.53,1.6 1.04,3.221 2.42,3.971 4.5,0.869 7.69,-1.06 12.44,-0.511 1.49,1.5 3.53,2.46 3.11,5.87 0.93,0.52 1.57,1.31 2.25,2.07 0.43,4.87 3.52,7.08 5.36,10.54 0.61,0.261 1.65,0.08 2.07,0.52 0.66,0.66 0.61,2.031 1.56,2.42 2.7,-0.55 4.06,1.51 5.7,1.73 0.65,0.091 1.41,-0.34 2.07,-0.17 0.92,0.23 1.41,1.35 2.25,1.551 2.76,0.67 6.1,-0.971 6.91,1.899 0.7,2.49 -0.38,6.311 -0.17,9.331 -4.03,-0.341 -8,-0.75 -11.75,-1.381 -1.99,-2.27 -5.4,-3.13 -6.4,-6.389 -2.7,-1.671 -4.13,-4.621 -6.04,-7.091 -2.9,-0.4 -3.64,-2.94 -5.71,-3.97 -1.19,-0.59 -2.37,-0.37 -3.63,-1.38 -2.76,0.39 -4.4,-1.47 -6.91,-0.69 -1.25,0.381 -2.1,2.93 -3.8,2.93 -2.8,0.201 -6.41,-0.41 -8.64,0.35 -0.52,1.811 0.12,2.66 -0.17,3.97 -0.51,2.29 -3.25,3.62 -3.63,5.19 -0.39,1.59 0.58,3.671 -1.73,3.97 -1.55,-0.34 -1.39,-2.16 -2.42,-3.11 -0.52,-0.47 -1.8,-0.75 -2.76,-1.209 -3.05,-1.431 -5.5,-3.601 -8.64,-4.661 -1.06,1.471 -2.59,2.48 -2.42,5.181 -1.1,0.689 -0.97,1.839 -1.9,2.589 -0.71,0.57 -1.53,0.4 -2.59,0.69 -0.63,0.18 -0.96,0.62 -1.39,0.69 -2.52,0.43 -5.69,-0.449 -8.29,0.18 -0.61,0.95 -1.75,2.081 -1.56,3.28 2.97,0.94 5.99,0.6 8.99,1.04 0.75,0.11 1.45,0.591 2.25,0.69 1.91,0.25 3.94,-0.4 5.87,0 1.2,0.25 2.39,1.321 3.8,1.55 1.26,0.21 2.51,-0.22 3.8,0 1.32,0.23 3.03,1.19 5.01,0.69 1.46,0.73 2.05,2.34 3.12,3.46 1.65,0.25 3.64,0.161 4.32,1.38 0.39,0.59 0.05,1.9 0.17,2.77 -3.16,2.32 -8.63,2.32 -10.71,5.7 1.48,0.14 2.75,0.811 4.32,1.041 2.68,0.389 5.96,-0.741 8.63,0 1.58,0.439 3.04,2.939 5.02,3.629 1.15,0.4 2.14,0.08 3.28,0.69 -0.46,3.96 4.44,2.57 6.74,3.8 0.78,1.18 1.5,2.421 1.38,4.49 -1.29,0.72 -2.97,1.07 -5.18,0.871 -3.01,-2.701 -10.13,-2.201 -15.56,-1.911 -1.25,0.71 -1.27,2.09 -2.07,3.11 -1.58,2.03 -4.45,2.83 -5.87,5.02 -1.8,0.99 -4.06,2.37 -4.32,4.321 2.15,0.759 4.43,1.619 6.91,1.21 1.07,-0.181 1.68,-0.761 2.76,-0.69 1.49,0.079 2.78,1.149 4.15,1.379 2.43,0.4 5.02,-0.25 7.6,0.17 1.93,0.32 4.21,0.81 6.74,0.52 1.09,0.38 1.16,1.85 2.94,2.24 2.98,0.671 6.92,-0.22 8.99,0.7 3.24,1.451 0.73,3.82 -1.73,4.14 H 7.09 c -1.9,0.561 -4.63,3.03 -4.5,4.84 0.19,2.69 6.22,4.11 5.19,7.951 -4.24,2.089 -10.38,0.069 -15.55,0.859 -2.26,0.35 -4.47,1.9 -6.4,1.9 -1.21,0 -2.7,-0.949 -4.14,-0.509 -1.54,1.569 -2.56,3.669 -4.32,5.009 -1.69,0.21 -2.65,1.61 -3.63,2.241 -0.53,0.349 -1.24,0.299 -1.73,0.699 -0.66,0.52 -1.09,1.5 -1.73,2.071 -0.69,0.609 -1.65,0.939 -2.42,1.549 -0.98,0.8 -1.63,2.05 -2.42,3.12 -0.64,0.86 -2.73,2.16 -1.21,3.45 1.29,0.39 1.95,-1.09 3.29,-1.38 2,-0.429 5.94,-0.42 8.12,0 1.54,0.29 2.85,1.5 4.32,0.86 1.6,-0.66 2.13,-2.16 3.8,-2.24 1.73,-0.089 3.1,1.871 5.36,2.24 1.51,0.25 2.42,-0.34 4.14,0.171 0.15,0.309 0.39,0.54 0.7,0.699 0.41,2.08 -0.68,2.67 -1.21,3.801 0.95,1.52 1.94,3 3.62,3.799 4.38,-1.43 11.6,-0.029 14.35,-3.11 0,-1.51 0.7,-3.18 2.41,-2.419 0.74,1.109 0.16,3.52 0.35,5.179 -1.44,1.97 -3.97,2.841 -5.53,4.67 -1.03,2.08 -1.85,4.381 -2.76,6.57 -1.06,1.23 -2.58,0.87 -4.5,1.21 -1.23,0.21 -2.39,1.23 -3.8,0.69 -0.96,0.51 -1.08,1.65 -1.73,2.42 -1.92,2.281 -4.74,3.85 -6.22,6.56 2.04,1.74 5.5,0.23 7.09,0 0.81,-0.109 1.7,0.15 2.42,0 0.56,-0.109 0.85,-0.69 1.38,-0.859 1.08,-0.351 1.84,-0.21 2.42,-0.521 1.59,-0.86 3.66,-0.729 5.01,-1.38 0.38,-0.19 0.84,-0.05 1.21,-0.18 2.68,-0.91 6.02,-0.58 9.85,-0.859 0.63,-0.911 0.03,-2.071 0.86,-2.941 1.27,-1.329 8.03,-1.71 10.89,-1.21 0.69,0.131 1.29,0.611 1.9,0.7 2.52,0.37 5.27,-0.44 6.05,1.201 -0.46,2.289 -3.74,3.98 -3.63,6.569 0.07,1.63 1.49,2.48 2.59,3.63 2.07,-0.05 2.43,1.6 3.8,2.25 2.76,0 3.74,1.79 4.84,3.45 0.48,0.561 2.46,-0.379 2.42,0.69 -0.21,2.27 -3.46,1.5 -3.11,4.32 -1.84,0.591 -3.69,1.15 -5.7,1.56 -3.38,2.04 -8.3,2.531 -12.1,4.15 -2.13,-0.29 -2.61,1.08 -4.84,0.69 -0.71,0.1 -0.69,0.921 -1.55,0.86 -1.86,-0.36 -2.01,0.99 -3.8,0.69 -1.82,1.26 -4,1.81 -5.88,3.11 -1.41,0.971 -2.55,2.281 -3.97,3.11 -1.04,0.611 -2.12,0.87 -3.11,1.56 -1.76,1.21 -3.7,2.22 -4.32,4.321 -4.57,3.199 -8.33,7.23 -11.41,11.919 1.05,2.16 4.75,1.38 7.6,1.38 2.79,0 6.75,0.65 9.16,0 0.91,-0.239 1.47,-1.739 2.42,-2.239 0.2,-0.111 0.9,-0.02 1.38,-0.181 1.7,-0.55 4.09,-0.64 6.57,-0.51 1.67,-2.42 4.76,-3.42 9.33,-2.94 1.06,-0.75 1.27,-1.69 2.42,-2.08 1.28,-0.42 2.77,0.26 4.32,0 0.87,-0.14 1.55,-1.15 2.59,-1.38 2.61,-0.56 5.53,0.43 8.47,0 1,-0.73 1.31,-2.14 2.25,-2.929 2.27,-0.56 5.49,-1.071 8.29,-0.52 -0.11,1.619 0.21,3.669 -0.17,5.009 -1.72,0.11 -3.38,0.991 -4.67,1.031 -1.17,0.049 -1.55,-0.531 -2.59,-0.691 -2.06,-0.309 -5.72,-0.5 -7.6,0 -1.77,0.48 -2.19,2.72 -3.8,3.631 -1.54,-0.44 -2.16,0.73 -3.46,0.689 -1.32,-0.03 -2.17,-1.09 -3.63,-0.689 -1.18,0.329 -1.7,2.389 -3.45,2.77 -1.47,0.309 -2.1,-0.371 -3.98,0.169 -1.47,1.88 -2.74,3.94 -5.35,4.67 0.57,5.29 -2.34,7.121 -4.5,9.67 -0.06,4.55 -4.45,4.77 -6.22,7.6 1.38,1.28 3.22,3.141 4.84,4.15 0.45,0.281 1.17,0.64 1.73,0.69 1.14,0.13 1.78,-0.489 2.42,-0.69 1.44,-0.44 1.37,-0.299 2.42,-0.86 0.44,-0.25 0.91,-0.47 1.38,-0.689 3.25,-1.561 6.33,-3.5 9.85,-4.5 1.4,-0.391 2.93,-0.75 4.84,-0.511 1.12,-0.429 1.26,-1.85 1.73,-2.94 1.44,-0.219 2.17,0.56 2.24,1.38 0.21,2.53 -5.47,4.02 -3.45,8.29 0.92,1.66 2.69,2.5 4.14,3.63 0.73,1.401 0.8,3.47 0.69,5.711 -4.58,3.599 -8.77,8.009 -12.96,12.44 -1.25,1.319 -3.95,3.069 -4.32,4.319 -0.52,1.75 0.3,3.951 0,5.701 -0.18,1.099 -1.05,2.279 -1.38,3.459 -0.14,0.51 -0.01,1.05 -0.17,1.55 -1.41,4.241 -0.04,10.41 -0.52,16.42 0.35,0.341 0.56,0.821 1.04,1.03 0.72,0.32 2.36,0.24 3.11,0 1,-2.939 2.3,-5.27 4.14,-7.6 1.57,-1.99 3.12,-4.15 6.4,-3.629 2.39,-2.44 4.99,-4.681 7.6,-6.911 -1.74,-2.98 1.2,-5.02 2.77,-6.569 1.13,-1.111 2.83,-3.101 3.97,-3.111 1.43,0 2.59,2.131 2.59,3.98 0,1.73 -1.31,3.31 -0.69,5.35 -0.35,1.011 -1,1.68 -1.55,2.6 -0.51,0.83 -1.46,2.03 -1.39,2.931 0.1,1.209 3.28,4.209 4.32,4.5 0.92,0.259 2.02,-0.21 2.94,0 0.91,0.199 1.15,1 1.9,1.379 0.89,0.45 2.08,0.13 2.42,1.04 v 5.871 c -0.88,0.789 -1.57,1.779 -3.28,1.73 -0.88,0.679 -1.07,2.049 -1.9,2.759 -2.13,-0.11 -2.88,1.16 -4.5,1.56 -0.7,3.03 -4.52,1.94 -3.28,5.87 0.12,0.41 1.15,1.98 1.9,2.94 0.92,1.18 2.16,1.84 3.29,2.59 1.15,0.79 3.31,2.16 4.32,2.42 0.43,0.12 1.1,-0.09 1.55,0 1.1,0.23 1.33,0.821 2.07,0.69 2.33,-0.39 2.24,-5.869 5.53,-5.7 2.31,0.121 3.59,3.06 5.19,4.67 0.97,0.98 2.02,1.21 2.76,2.07 -0.08,4.8 3.13,6.32 3.8,10.37 2.16,1.531 3.01,4.17 5.19,5.7 1.47,1.05 3.47,0.97 4.66,2.59 0.13,0.04 0.2,0.15 0.18,0.35 h 7.94 c 0.12,-2.3 2.23,-2.609 3.46,-3.8 0.53,-2.39 -0.14,-4.75 0.17,-6.74 0.49,-3.109 2.86,-5.27 2.94,-8.47 1.27,-1.659 3.15,-2.73 4.32,-4.49 -0.32,-1.919 0.53,-2.69 0.69,-4.149 0.74,-0.821 1.29,-1.811 2.77,-1.901 2.19,-2.22 5.09,-5.49 7.25,-8.119 1.44,-1.741 2.79,-3.071 6.23,-2.771 0.44,-1.56 0.63,-3.39 1.55,-4.49 -1.64,-1.76 0.35,-5.39 2.249,-3.11 -0.419,4.46 3.901,6.871 6.041,9.161 2.27,2.409 4.03,4.429 5.88,6.569 0.18,1.08 0.82,1.71 1.56,2.24 4.05,-0.539 5.62,1.41 7.94,2.59 0.99,-3.02 -0.14,-6.27 0.35,-9.5 0.25,-1.7 1.33,-5.02 0.52,-7.78 -1.08,-1.159 -2.74,-1.75 -3.46,-3.28 1.56,-2.4 0.15,-4.45 -1.38,-5.7 -0.1,-1.34 0.21,-3.09 -0.17,-4.15 -2.33,-1.59 -4.281,-3.71 -6.92,-6.39 -1.8,-1.829 -6.27,-4.559 -3.62,-6.91 3.22,-0.64 6.07,-0.32 8.81,0 1.03,0.12 2.22,-0.31 3.28,0 2.26,0.65 2.55,4.53 4.84,5.01 5.23,-0.8 5.21,3.66 7.95,5.35 0.01,3.5 2.21,4.81 4.32,6.23 2.32,-0.11 5.05,0.201 7.08,-0.18 0.6,-3.579 1.21,-10.04 -2.59,-10.369 -1.28,-1.891 -1.45,-4.881 -1.55,-7.94 -0.26,-0.911 -1.131,-1.181 -2.08,-1.391 -0.49,-2.149 -0.75,-4.54 -0.86,-7.08 -0.4,-1.1 -1.99,-1.01 -2.76,-1.73 1.12,-1.47 2.569,-2.609 3.62,-4.15 3.86,-0.38 4.27,3.96 7.26,4.67 0.84,0.2 1.97,-0.29 2.939,0 1.301,0.391 1.931,2.371 3.111,2.94 7.12,-0.14 15,0.491 20.91,-0.87 0.52,-0.56 0.29,-1.88 0.34,-2.94 -2.67,-1.3 -3.17,-4.77 -6.22,-5.699 -0.13,-0.651 -0.46,-1.801 -1.21,-2.071 -0.72,-0.27 -1.47,0.52 -2.24,0.52 -0.88,0 -1.41,-0.42 -2.77,-0.69 -0.52,-0.11 -0.91,-0.61 -1.38,-0.7 -1.05,-0.18 -2.3,0.18 -3.28,0 -0.67,-0.11 -1.2,-0.59 -1.73,-0.69 -0.87,-0.139 -2.2,0.2 -2.94,0 -1.841,-0.49 -1.62,-2.36 -2.07,-3.63 -0.49,-1.35 -2.31,-1.7 -2.08,-3.799 2.78,-1.19 7.38,-0.571 10.2,-1.73 2.609,1.469 3.359,4.809 7.26,5.02 1.53,0.759 2.77,1.829 3.97,2.929 3.58,-0.1 7.58,0.22 10.89,-0.17 1.5,-1.819 0.92,-7.42 0.51,-10.02 -0.96,-0.46 -1.9,0.07 -2.76,-0.17 -0.91,-0.26 -3.83,-2.65 -4.15,-3.98 -0.34,-1.41 0.36,-2.89 -0.17,-4.49 -0.65,-0.389 -1.01,-1.07 -2.25,-0.869 -0.59,-1.181 -1.45,-2.111 -2.42,-2.931 -2.93,-0.31 -5.1,0.411 -7.43,0 -1,-0.18 -1.77,-1.13 -2.76,-1.39 -0.53,-0.13 -1.081,0.08 -1.55,0 -1.05,-0.17 -1.94,-1.13 -3.12,-0.69 -0.49,-0.39 -1.53,-1.08 -1.21,-2.07 0.16,-0.5 2.14,-1.25 2.94,-1.379 1.59,-0.27 4.16,0 6.91,0 2.29,0 5.56,-0.33 6.74,0 1.47,0.409 2.36,2.69 3.459,2.929 2.411,0.13 4.271,0.801 6.221,1.39 0.27,0.641 0.22,1.621 0.86,1.9 5.26,0.68 12.43,0.35 17.98,0.17 0.61,-0.76 0.24,-2.52 0.34,-3.8 -0.7,-0.74 -1.25,-1.64 -2.07,-2.25 0.15,-4.3 -2.67,-5.62 -4.15,-8.29 -3.61,-0.069 -6.14,-1.23 -10.2,-0.87 -1.07,-0.71 -1.25,-2.31 -1.72,-3.62 -1.07,-2.22 -2.81,-3.76 -4.32,-5.53 -1.67,-0.18 -2.34,-1.35 -3.98,-1.56 -0.98,-1.2 -1.73,-2.65 -2.94,-3.63 h -9.84 c -1.36,0.52 -2.47,3.24 -3.98,3.63 -2.12,0.55 -3.39,-0.89 -2.25,-2.42 0.37,-0.49 1.37,-0.589 2.42,-1.21 0.75,-0.44 1.19,-0.919 2.25,-1.379 1.47,-0.631 2.69,-1.79 1.73,-4.151 -3.03,-0.78 -5.81,-1.79 -6.91,-4.49 -0.36,-0.06 -0.75,-0.12 -1.17,-0.18 -1.29,-0.15 -2.81,-0.219 -4.19,0.01 -0.86,0.13 -1.38,0.69 -2.07,0.69 -0.72,0 -1.28,-0.56 -2.08,-0.69 -0.72,-0.12 -1.53,0.12 -2.24,0 -0.57,-0.1 -1.01,-0.59 -1.56,-0.689 -2.32,-0.421 -6.2,-0.351 -8.29,0 -1.18,0.199 -1.94,1.02 -3.8,0.689 -0.65,-0.12 -1.291,-0.89 -1.91,-0.689 -1.21,-1.421 -1.01,-3.96 0.69,-4.671 1.66,-0.22 2.77,-1.11 4.5,-0.86 0.679,0.1 1.23,0.58 1.9,0.69 4.98,0.83 9.85,-1.5 15.2,-0.69 1.55,0.64 2.14,2.23 3.12,3.45 0.34,0.081 0.69,0.14 1.05,0.17 2.83,0.34 6.06,-0.49 9.14,0 1.21,0.201 2.769,1.21 3.8,1.391 3.66,0.639 8.27,-0.041 12.62,0.169 7.26,0.351 13.78,-0.35 20.73,-0.169 0.53,-0.46 0.97,-0.991 1.56,-1.391 1.42,-0.08 2.6,0.19 3.63,-0.17 0.92,-0.32 1.19,-1.14 1.9,-1.73 1.31,-1.08 3.25,-1.419 4.15,-2.76 0.01,-1.54 1.03,-2.07 0.86,-3.8 1.58,-1.04 3.5,-1.97 5.7,-1.56 2.64,0.5 4.53,4.03 7.95,3.46 1.39,0.971 2.32,2.4 3.63,3.451 2.83,-0.23 3.59,1.599 4.67,3.109 2.62,-0.18 6.04,0.411 8.12,-0.339 0.27,-1.171 0.27,-3.321 0,-4.491 -3.49,-0.469 -4.86,-2.02 -7.09,-4.32 -1.08,-1.11 -2.56,-2.18 -3.28,-3.11 -0.5,-0.64 -0.54,-1.41 -1.04,-1.9 -1.57,-1.56 -4.3,-1.86 -5.01,-4.33 0.3,-2.079 -0.4,-3.17 -0.86,-4.49 -3.28,-2.319 -8.62,-3.35 -14.17,-2.42 -0.41,0.07 -0.76,0.55 -1.38,0.69 -0.42,0.101 -1.06,-0.109 -1.39,0 -0.7,0.26 -1.5,0.97 -3.11,0.7 -0.94,-0.16 -1.85,-1.119 -2.76,-1.39 -0.42,-0.11 -0.89,0.13 -1.211,0 -1.339,-0.49 -2.5,-1.54 -3.289,-2.59 v -3.97 c 0.85,-1.16 1.47,-2.57 2.08,-3.98 -4.23,-0.78 -9.9,-0.129 -14.69,-0.34 -1.4,-2.18 -2.8,-4.34 -6.39,-4.32 -1.23,-1.9 -2.09,-4.14 -2.77,-6.57 -0.88,-1.66 -2.45,-2.629 -4.15,-3.459 h -5.87 c -1.09,1 -1.77,2.389 -3.29,2.939 -4.02,0.61 -7.14,-0.81 -10.71,0 -1.83,0.42 -2.88,2.68 -4.49,2.77 -1.77,0.09 -2.55,-1.379 -3.63,-2.419 -0.28,-2.29 0.62,-3.421 1.55,-4.5 2.43,-0.5 4.94,-0.921 8.13,-0.691 1.78,-1.12 4.769,-3.45 7.43,-1.55 4.85,-1.42 7.44,-5.11 12.27,-6.57 0.89,-1.169 2.61,-2.03 4.14,-2.939 0.51,-0.301 1.16,-0.411 1.56,-0.691 0.81,-0.55 1.22,-1.73 2.25,-1.9 1.13,-0.19 2.08,0.39 3.619,0.69 1.881,0.381 3.861,1.85 5.021,2.08 2.75,0.531 7.05,0 10.54,0 3.8,0 7.7,0.64 10.36,0 0.73,-0.179 3.99,-2.98 4.32,-4.15 0.17,-0.61 -0.13,-1.33 0,-1.9 0.3,-0.399 0.83,-0.55 1.04,-1.04 2.43,0.3 4.82,-0.39 7.26,0 1.39,0.23 2.33,0.891 3.8,0.69 0.63,-0.08 1.09,-0.56 1.73,-0.69 3.07,-0.589 6.78,0.06 8.29,1.38 3.63,-0.23 5.03,1.77 7.26,2.94 1.87,-0.32 2.12,0.99 3.97,0.69 1.05,0.48 1.13,1.52 2.08,1.901 0.78,0.329 1.61,-0.04 2.59,0.179 2.38,0.52 3.89,4 7.08,2.76 0.62,-1.83 1.77,-3.56 0.35,-5.36 -0.78,-0.97 -2.63,-1.65 -3.97,-2.59 -2.04,-1.4 -3.83,-3.19 -5.36,-3.63 -1.23,0.2 -1.76,-0.31 -2.42,-0.69 -4.82,1.01 -4.4,-3.2 -8.47,-2.93 -1.67,-0.8 -2.65,-2.62 -4.66,-3.46 -0.38,-0.15 -0.91,-0.02 -1.38,-0.17 -1.4,-0.44 -2.51,-1.87 -3.29,-2.08 -1.891,-0.489 -3.79,0 -5.7,-0.69 -1.63,-1.03 -2.2,-3.089 -4.32,-3.629 -1.78,0.52 -3.32,-0.48 -4.49,-0.69 -1.18,-0.201 -2.69,0.219 -4.15,0 -2.07,-0.301 -3.59,-0.98 -5.18,-0.691 -2.74,0.49 -4.32,2.97 -6.74,3.8 0.06,1.38 1.39,1.49 1.55,2.77 -0.23,1.16 -1.42,1.351 -2.94,1.21 -1.47,-2.21 -3.55,-3.83 -5.01,-6.05 -4.06,0.78 -7.61,-1.64 -9.85,-3.8 0.49,-1.239 2.03,-1.44 3.11,-2.08 4.6,0.12 10.21,0.08 14.17,-0.52 9.82,-1.46 21.88,0.881 32.49,-0.34 1.89,-1.279 3.07,-3.26 5.36,-4.15 0.15,-1.11 0.96,-1.57 1.03,-2.76 1.5,-0.4 2.65,-1.15 2.94,-2.77 1.45,-1.09 2.32,-3.03 3.8,-4.139 1.2,-0.921 3.14,-1.111 3.46,-2.941 -1.61,-1.329 -4.55,-0.94 -6.91,-0.69 -1.21,1.03 -2.72,1.78 -3.81,2.93 -3.94,0 -4.44,3.9 -9.5,2.94 -1.43,-0.259 -3.78,-2.54 -5.88,-2.94 -3.23,-0.6 -6.03,0.951 -7.08,-1.72 -0.44,-2.34 1.33,-3.39 0.52,-5.53 -0.25,-0.98 -1.48,-0.92 -2.42,-1.39 -0.85,-0.409 -1.48,-1.199 -2.42,-1.38 -2.91,-0.54 -6.23,-0.009 -9.16,-0.69 -1.57,0.73 -2.44,3.75 -4.15,3.46 -1.33,-0.23 -0.82,-2.299 -2.24,-2.77 -1.74,0.17 -2.08,2.38 -3.8,2.77 -1.13,0.26 -5.05,-0.85 -5.88,-1.56 -0.83,-0.699 -0.88,-1.9 -1.38,-2.59 0.58,-2.35 3.33,-2.54 3.46,-5.359 1,-1.06 2.54,-1.601 3.45,-2.761 -1.34,-1.23 -0.33,-3.299 -0.35,-5.529 -0.48,-1.051 -1.56,-1.281 -1.72,-2.421 -0.27,-1.82 1.62,-3.619 2.59,-4.67 4.27,-0.619 9.11,0.841 12.96,0 1.91,-0.409 2.99,-2.44 4.49,-2.929 1.16,0.489 1.94,-0.471 2.94,-0.701 0.6,-0.13 1.33,0.11 1.9,0 0.96,-0.17 2.46,-0.92 3.46,-1.549 1.07,-0.681 2.52,-1.551 3.11,-2.25 0.63,-0.75 0.64,-1.851 1.03,-2.761 1.01,-2.33 3.05,-4.46 3.63,-6.91 1.69,-1.25 3.39,-2.49 4.84,-3.98 0.97,-4.38 5.86,-5.76 5.88,-10.539 -3.93,-0.241 -8.09,-0.881 -11.58,-0.341 -1.13,0.17 -1.81,0.7 -2.59,0.69 -1,-0.02 -2.26,-0.409 -3.11,-0.69 -0.49,-0.159 -0.94,-0.71 -1.56,-0.699 -2.07,0.069 -3.9,3.549 -5.7,4.839 -0.5,0.36 -1.4,0.59 -1.73,0.871 -2.28,1.899 -2.79,5.54 -4.84,7.77 -1.11,1.219 -2.43,1.439 -3.45,2.77 -0.69,2.5 -1.59,6.21 -3.98,6.04 -1.5,-0.101 -1.26,-1.651 -2.07,-2.761 -0.61,-0.83 -1.3,-0.68 -1.73,-1.549 -0.08,-1.631 1.26,-1.861 2.59,-2.081 1.87,-2.01 3.98,-5.74 5.53,-8.98 0.95,-1.99 1.66,-3.39 0.35,-5.36 -2.28,-3.41 -9.68,-2.87 -12.1,-6.22 -0.4,-3.22 0.739,-4.9 2.59,-5.879 0.64,-0.111 1.44,0.149 2.25,0 2.28,-0.411 4.03,-3.081 7.08,-3.621 0.63,-0.109 1.42,0.11 2.08,0 0.6,-0.109 1.12,-0.569 1.73,-0.7 1.05,-0.23 2.35,0.29 3.45,-0.69 6.58,0.591 10.63,-1.35 17.11,-0.86 1.43,-1.28 2.58,-2.839 4.67,-3.46 2.2,-0.16 5.07,0.36 6.73,-0.339 0.63,-1.281 0.66,-3.141 1.21,-4.5 0.42,-0.901 2.03,-0.611 2.08,-1.901 -0.56,-0.95 -1.67,-0.429 -2.6,-0.69 -0.87,-0.239 -1.53,-1.05 -2.41,-1.38 -1.86,-0.69 -4.35,-0.79 -4.84,-2.77 1.26,-2.049 2.68,-3.85 5.35,-4.31 3.59,-0.62 8.95,0.81 11.759,-0.87 2.5,-1.5 2.931,-4.71 5.521,-6.05 0.04,-1.43 -1.64,-0.92 -2.76,-1.21 -0.58,-0.14 -1.02,-0.6 -1.56,-0.69 -0.63,-0.11 -1.44,0.121 -2.24,0 -1.52,-0.23 -2.54,-0.97 -3.63,-0.689 -1.66,0.429 -1.99,2.739 -3.63,2.77 -5.96,-0.491 -10.12,0.819 -15.72,0.689 -1.42,1.12 -1.96,3.12 -3.981,3.63 H 233.8 c -1.41,0.83 -2.84,3.411 -5.53,2.931 -0.92,-0.161 -2.01,-0.98 -2.07,-2.241 -0.05,-0.87 1.24,-2.9 2.07,-3.81 1.53,-1.659 4.68,-2.34 6.91,-3.969 0.7,-0.5 0.97,-1.171 1.56,-1.551 1.71,-1.11 4.59,-1.88 6.39,-2.77 0.82,-1.24 2.53,-1.61 3.46,-2.76 3.66,-1.37 6.71,-4.08 9.85,-6.23 1.07,-0.73 1.91,-1.53 2.93,-2.24 0.56,-0.389 1.22,-0.46 1.73,-0.87 0.79,-0.61 1.27,-1.59 2.08,-2.24 1.02,-0.83 2.14,-1.33 3.11,-2.25 0.85,-0.81 1.49,-1.87 2.42,-2.76 1.76,-1.71 3.85,-3.309 5.35,-5.19 0.6,-0.75 0.919,-1.7 1.56,-2.42 0.62,-0.709 1.51,-1.18 2.07,-1.9 1.86,-2.37 3.19,-5.259 4.49,-7.95 -1.32,-1.229 -3.47,-1.849 -5.701,-1.38 -2.139,0.46 -3.969,3.16 -5.699,3.63 -4.22,-0.41 -6.16,1.45 -8.64,2.771 -2.34,-0.221 -4.63,0.59 -6.22,-0.351 -0.46,-1.22 -0.48,-2.859 -1.73,-3.279 -3.06,0.559 -4.57,-1.271 -7.26,-0.521 -1.1,1.01 -0.98,2.12 -1.55,3.8 -0.16,0.45 -0.62,0.65 -0.69,1.04 -0.12,0.61 0.06,1.471 0,2.24 -0.09,1 -0.57,1.931 -0.69,2.94 -0.36,2.85 0.36,3.301 -2.25,4.491 -1.51,0.699 -2.16,0.859 -4.15,1.209 -0.63,0.12 -1.14,0.62 -1.55,0.69 -5.9,1.02 -10.48,-0.66 -12.1,-3.97 0.23,-1.49 -0.32,-2.48 0,-3.8 0.6,-2.46 4.74,-3.47 4.84,-6.22 0.03,-1.019 -0.63,-1.97 -1.38,-3.109 -1.97,-0.79 -4.19,-0.551 -6.22,-0.87 -1.67,-0.261 -1.86,-0.7 -3.63,-0.17 -2.56,0.76 -5.04,1.72 -7.6,2.25 -4.78,2.649 -8.97,5.889 -14.17,8.119 -0.66,1.01 -1.55,1.8 -2.42,2.59 -4.99,1.12 -7.95,4.27 -10.891,7.43 -6.129,2.28 -10.929,5.891 -15.209,10.02 -1.62,0 -2.35,0.88 -3.97,0.871 -1.31,1.389 -2.38,3.039 -4.67,3.449 -1.58,0.15 -3.8,-0.34 -4.84,0.35 -0.89,0.44 -0.72,1.931 -1.55,2.42 -0.42,0.33 -1.39,0.11 -2.07,0.17 -1.71,-1.4 -1.16,-3.32 0.17,-4.32 1.34,-1.01 3.24,-2.68 3.8,-4.15 -1.33,-1.66 -0.19,-3.49 0.52,-5.01 -1.4,-1.44 -4.67,-0.78 -5.53,-2.59 -0.37,-0.76 -0.2,-2.74 0,-3.629 0.349,-1.601 2,-2.67 3.11,-3.281 1.76,0.49 3.53,-0.449 5.36,-0.69 1.26,-0.17 2.54,0.281 3.629,0 1.201,-0.31 1.75,-1.739 2.761,-2.08 h 2.42 c 1.74,-0.99 3.27,-1.19 4.84,-2.419 1.25,-0.981 1.87,-2.511 2.93,-3.801 1.32,-1.59 2.94,-2.67 4.5,-3.97 h 1.38 c 5.99,-3.05 13.06,-5.03 17.97,-9.16 1.71,-0.479 2.78,-1.59 5.01,-1.55 0.35,-0.219 0.73,-0.429 1.04,-0.7 4.64,-0.59 8.04,-2.43 11.399,-4.319 1.351,0.26 1.721,-0.471 2.601,-0.691 h 3.11 c 3.42,-2.45 4.31,-7.44 9.5,-8.12 1.03,-0.29 1,-1.21 1.73,-1.899 1.62,-1.54 5.02,-1.841 4.32,-5.011 -6.19,-0.71 -11.92,-1.35 -17.63,-0.35 -1.76,0.31 -4,1.98 -6.04,1.56 -1.43,-0.29 -2.01,-2.06 -3.81,-2.769 -0.89,-0.34 -2.281,-0.941 -2.76,-1.031 -1.82,-0.34 -2.85,0.601 -4.84,1.031 -0.88,0.259 -0.89,1.639 -1.73,2.419 -0.26,0.25 -0.92,0.18 -1.21,0.52 -0.29,0.341 -0.26,1.011 -0.52,1.381 -0.95,1.389 -3.86,3.59 -5.87,3.289 -1.56,-0.23 -4.56,-1.44 -4.32,-3.63 1.8,-1.54 6.63,-0.05 6.39,-3.63 1.02,-1.87 3.48,-1.72 4.67,-3.46 0.5,-0.729 0.52,-1.939 1.04,-2.76 0.69,-1.11 1.51,-1.28 2.59,-2.08 3.72,0.16 5.22,-1.92 7.26,-3.45 1.49,-0.279 2.62,-0.939 4.31,-1.04 1.53,-3.069 2.01,-6.439 3.98,-8.979 1.03,-1.34 2.71,-1.67 3.63,-3.111 -0.32,-3.03 1.55,-4.49 3.45,-6.399 1.19,-1.191 3.43,-4.33 5.88,-3.631 1.04,0.311 1.35,2.45 2.59,2.77 2.59,0.67 5.91,-2.33 7.26,-3.799 1.97,-2.16 3.63,-3.651 5.35,-5.531 2.75,-1.049 5.4,-2.21 8.64,-2.77 0.929,-0.6 3.15,-2.01 5.02,-2.76 2.19,-0.88 3.88,-1.68 1.9,-3.8 -2.93,-0.559 -5.741,0.34 -8.47,-0.87 -1.26,-0.55 -2.38,-2.639 -3.46,-2.939 -1.36,-0.37 -3.561,0 -5.53,0 -1.94,0 -4.16,-0.221 -5.531,0 -1.199,0.199 -3.209,1.13 -5.349,0.699 -0.94,-0.189 -1.63,-0.939 -2.42,-1.56 -0.22,-2.259 -1.06,-3.9 -0.69,-6.74 -0.541,-0.599 -0.92,-1.849 -1.73,-2.25 -1.68,-0.8 -3.561,-0.269 -5.53,-0.859 -0.71,-0.21 -2.45,-1.691 -3.281,-2.25 -1.189,-0.78 -2.209,-1.611 -3.109,-2.41 -0.58,-2.401 -0.19,-5.821 2.24,-6.05 1.65,-0.16 3.02,1.529 4.5,2.42 1.24,0.75 1.77,1.88 2.76,1.899 1.09,0.01 2.59,-1.59 3.8,-2.59 2.04,-1.69 2.72,-2.639 5.19,-3.809 2.39,-1.131 3.32,-0.011 5.18,1.729 1.17,1.101 2.04,2.361 2.76,3.111 2.24,1.129 5.9,0.87 10.2,0.87 2.75,0 5.71,0.38 7.78,0 0.73,-0.141 1.89,-0.821 2.93,-1.21 1.019,-0.381 2.11,-0.691 2.94,-1.04 1.36,-0.58 3.74,-1.13 4.67,-2.25 -0.78,-2.04 -0.01,-5.641 -0.52,-7.95 -1.47,-0.55 -2.51,-1.67 -4.321,-2.071 -1.639,-0.37 -3.479,0.25 -5.189,0 -1.73,-0.24 -3,-1.399 -4.49,-1.55 -1.2,-2.32 -2.01,-5.02 -2.76,-7.78 -2.54,-0.62 -4.64,0.25 -6.91,-0.17 -1.21,-0.229 -2.16,-1.349 -3.29,-1.38 -1.27,-0.04 -2.82,0.97 -4.32,1.55 -2.041,0.79 -4.94,1.83 -7.26,2.941 -0.39,1.219 -1.18,2.04 -2.07,2.759 -2.711,-0.059 -5.94,0.41 -7.26,-1.04 -0.23,-0.45 -0.21,-1.17 -0.34,-1.719 -1.35,-1.031 -3.17,-2.581 -5.361,-3.63 -0.969,-0.46 -2.479,-1 -3.279,-0.861 -2.15,0.361 -2.65,3.41 -4.67,4.31 -3.51,0.03 -6.14,-1.52 -8.12,0.87 -0.07,1.261 -0.46,2.19 -1.21,2.761 -1.53,0.09 -3.41,-0.181 -4.66,0.179 -1.42,1.111 -0.32,3.75 -2.94,3.451 -4.01,-0.451 -1.42,-9.231 0.34,-10.71 3.36,-0.361 8.84,1.09 7.78,-4.491 1.57,-1.429 3.06,-3.849 3.28,-6.049 -0.09,-1.181 -1.65,-0.92 -2.59,-1.21 -1.01,-0.311 -1.82,-0.981 -3.63,-0.691 -1.48,0.231 -2.31,1.51 -3.63,1.38 -1.31,-0.12 -1.98,-2.109 -3.28,-2.59 -2.12,-0.78 -5.5,0.321 -7.78,-0.179 -1.53,-0.33 -2.23,-1.8 -2.59,-3.281 1.45,-2.639 4.729,-0.67 7.26,-1.549 1.24,-0.441 1.94,-2.34 3.28,-2.771 1.43,-0.439 3.37,0.5 5.189,0 1.031,-0.29 1.531,-1.77 2.411,-2.069 2.19,1.309 3.27,3.759 5.71,4.84 2.56,-0.17 4.46,0.729 6.39,0 2.08,-0.8 3.21,-3.951 5.18,-5.531 2.98,-2.38 5.92,-3.17 12.1,-3.11 0.82,-0.789 1.2,-2.02 2.25,-2.6 16.73,0.51 35.58,-1.62 52.01,-0.17 1.97,0.17 4.23,1.241 6.91,0.52 2.69,-2.26 6.65,-3.659 10.2,-5.529 2.27,-1.201 4.88,-2.101 5.7,-3.46 2.45,-4.09 -4.34,-4.21 -8.64,-3.971 -1.64,0.091 -3.56,0.141 -4.67,0.52 -1.13,0.38 -1.18,1.6 -2.76,1.55 -1.13,-0.03 -1.14,-0.929 -2.42,-1.38 -0.56,-0.19 -1.35,0.031 -1.9,-0.17 -1.31,-0.469 -1.721,-1.66 -2.25,-2.589 -1.78,-0.651 -4.66,-1.451 -7.08,-0.871 -1.49,0.361 -1.73,1.97 -2.94,2.081 -1.83,-0.72 -0.58,-4.5 -1.21,-6.401 -1.05,-1.03 -2.45,-2.099 -4.15,-2.939 -3.23,-1.58 -9.57,-0.311 -11.4,-3.63 -2.8,-0.32 -5.39,-0.221 -8.12,-0.691 -1.8,-0.309 -3.571,-1.62 -5.19,-1.379 -0.85,0.129 -1.46,1.169 -2.42,1.379 -1.25,0.281 -2.91,-0.29 -4.14,0 -2.28,0.56 -3.571,4.571 -6.74,3.63 -1.43,2.25 -5.34,3.71 -8.12,1.731 -0.47,-1.49 -0.52,-3.401 -1.39,-4.49 -2.62,-0.13 -5.3,-0.84 -7.43,-0.18 -2.25,0.72 -2.54,3.75 -4.66,4.319 -1.51,-0.97 -1.17,-3.79 -3.11,-4.319 -2.22,0.029 -4.09,-0.301 -6.4,-0.171 -2.971,3.95 -6.33,9.891 -10.36,14 -1.13,1.15 -2.97,2.71 -4.15,2.761 -2.28,0.099 -2.76,-2.12 -4.67,-2.761 -2.03,0.96 -2.25,2.82 -4.49,3.11 -1.33,0.17 -2.88,-0.559 -4.15,-0.17 -1.48,0.46 -1.78,1.901 -2.93,2.59 -4.48,0.01 -5.29,3.71 -7.95,5.53 -1.44,-0.75 -2.59,-2.24 -4.67,-2.589 -1.29,-0.221 -3.11,0.529 -4.15,-0.521 1.33,-2.309 4.25,-0.58 6.74,-1.559 1.3,-0.51 1.97,-2.411 3.46,-2.59 2.24,-0.271 4.4,1.359 6.05,-0.691 0.64,-6.519 -9.14,-4.099 -9.85,-9.849 3.47,-1.021 6.1,0.299 8.81,-1.04 0.91,-0.441 1.41,-1.721 2.42,-2.071 1.69,-0.59 3.49,0.29 5.36,-0.17 1.53,-0.379 2.32,-2.379 3.97,-2.77 1.15,-0.26 2.73,0.33 4.15,0 2.29,-0.539 4.06,-4.43 8.98,-2.94 4.07,-3.469 10.08,-5.009 12.959,-9.669 -0.709,-3.93 1.541,-4.911 2.941,-6.741 1.58,-4.389 -4.77,-5.469 -7.78,-4.84 -1.89,0.401 -2.52,2.911 -3.97,3.111 -1.37,0.3 -3.42,-0.391 -5.01,0 -1.11,0.269 -1.86,1.71 -2.94,2.069 -2.61,0.891 -5.53,-0.019 -8.81,0.7 -1.29,0.281 -2.37,1.64 -3.8,2.071 -1.05,0.319 -2.31,0.7 -3.29,0.859 -2.54,0.41 -4.6,-0.14 -6.74,0.87 -0.87,0.41 -1.38,1.231 -2.59,1.21 -1.88,-3.85 3.14,-4.21 6.4,-5.529 2.31,-0.95 3.68,-2.421 5.18,-2.941 1.2,-1.61 2.61,-3.03 4.32,-4.15 4.58,0.301 4.76,-4.73 8.29,-5.699 0.7,-0.191 1.4,0.059 2.08,-0.17 1.91,-0.671 3.51,-3.32 5.36,-4.671 2.21,-1.63 4.32,-2.14 6.56,-3.449 0.65,-0.91 1.15,-1.971 2.07,-2.601 6.18,0.061 13.28,0 19.36,-0.51 1.49,-0.13 3.2,0.1 4.49,-0.179 1.03,-0.21 1.67,-1.231 2.94,-1.38 2.07,-0.25 5.36,-0.731 7.6,-0.861 1.19,-0.07 2.26,0.1 2.94,-0.179 1.89,-0.781 2.92,-5.281 3.97,-7.601 -0.19,-1.389 -1.67,-2.609 -2.76,-4.319 -1.53,-2.391 -2.95,-7.551 -7.6,-6.051 -2.961,0.96 -3.73,4.761 -7.09,5.7 h -5.01 c -0.83,0.51 -1.14,1.51 -1.9,2.08 -3.41,-1.82 -5.19,-6.61 -8.98,-7.78 -2.27,-0.689 -4.38,0.32 -6.75,0.351 -2.39,0.029 -5.01,-1.21 -6.04,1.38 -0.441,1.089 -0.14,2.109 -0.87,3.109 -1.23,1.681 -4.22,2.12 -6.74,3.801 -1.06,0.71 -1.77,1.84 -2.24,2.08 -1.57,0.76 -3.64,0.25 -5.36,0.689 -1.81,0.45 -3.04,2.54 -5.36,2.93 -2.13,0.37 -3.77,-0.26 -6.56,0 -1.36,1.181 -2.51,2.421 -3.8,3.81 -0.93,0.98 -3.3,2.75 -3.63,3.97 -0.52,1.87 0.619,3.72 -0.18,5.361 -0.5,1.019 -2.31,1.719 -3.28,2.929 -1.34,1.68 -1.65,3.09 -2.59,5.361 -1.09,-0.22 -1.55,-1.29 -2.94,-1.731 -0.8,-0.239 -1.76,-0.019 -2.59,-0.34 -1.11,-0.429 -1.82,-2.11 -2.94,-2.25 -2.27,-0.269 -2.39,2.231 -4.49,2.941 -2.94,-1.401 -4.66,-0.021 -6.39,1.549 -0.87,0.791 -2.27,1.47 -2.6,2.25 -0.74,1.76 0.19,3.96 -0.17,6.22 -2.37,1.561 -8.75,0.91 -11.92,0.521 0.33,-2.991 11.24,-7.681 5.7,-11.58 0.31,-1.241 1.48,-1.63 2.07,-2.59 -0.15,-3.721 2.79,-5.681 4.84,-7.78 1.8,-1.84 3.56,-3.63 5.36,-4.831 h 2.59 c 2.17,-1.69 3.36,-4.36 5.88,-5.71 2.91,0.46 3.47,-2.389 5.87,-2.929 0.87,-0.2 1.72,0.069 2.42,-0.181 1.16,-0.399 1.729,-1.92 2.94,-2.42 0.64,-0.26 1.34,-0.13 1.9,-0.34 1.2,-0.46 1.44,-1.54 2.42,-2.08 6.69,0.241 8.17,-5.63 8.12,-11.57 -2.79,-1.569 -6.52,-2.359 -10.37,-1.56 -1.531,0.33 -3.07,2.38 -5.01,2.77 -1.25,0.25 -2.72,-0.26 -3.8,0 -1.74,0.421 -2.32,2.601 -3.63,2.931 -1.26,-0.09 -2.04,-1.601 -3.28,-2.071 -0.93,-0.349 -2.45,-0.24 -3.63,-0.86 -1.56,-0.819 -2.56,-2.44 -4.15,-2.77 -1.11,-0.23 -3.77,-0.32 -5.01,0 -1.8,0.46 -2.07,2.38 -3.46,2.77 -2.94,0.82 -5.41,-0.27 -6.22,-2.25 -0.43,-1.06 -0.49,-2.399 -0.86,-3.46 -0.29,-0.81 -1.44,-2.85 -1.38,-4.319 0.05,-1.34 1.15,-2.511 2.07,-2.59 2.17,-0.181 2.26,1.97 3.8,2.769 h 6.91 c 1.19,-0.71 1.77,-2.03 2.94,-2.769 3.02,0.349 4.97,-2.271 6.57,-3.971 1.45,-1.54 3.37,-3.26 2.59,-5.529 -4.78,-0.921 -12.56,1.139 -15.731,-1.381 0.621,-1.239 2.421,-0.64 3.631,-0.69 1.55,-0.07 3.56,-0.259 5.53,-0.179 4.22,0.189 6.43,0.439 7.95,-2.071 4.26,-1.509 9.43,0.47 13.65,-0.69 1.34,-0.37 2.47,-1.64 3.98,-2.08 0.4,-0.109 0.91,0.101 1.38,0 0.52,-0.1 0.9,-0.6 1.379,-0.689 0.921,-0.161 1.901,0.129 2.771,0 1.93,-0.271 4.53,-1.21 7.08,-1.55 3.36,-2.061 4.13,-7.37 -1.21,-8.13 -0.95,-0.12 -2.98,-0.25 -3.97,0 -0.89,0.239 -1.35,1.47 -2.421,2.079 -1.399,0.801 -3.429,0.301 -5.189,0.86 -1.36,0.441 -2.26,2.33 -3.62,2.771 -2.98,0.96 -5.67,0.059 -8.3,-0.351 -0.34,-1.3 1.33,-1.62 1.9,-2.939 0.88,-2.071 0.13,-4.901 -0.17,-7.25 -0.74,-0.311 -1.95,-0.131 -2.94,-0.181 -3.67,2.45 -4.38,7.84 -10.37,7.95 -1.44,2.16 -4.29,3.1 -8.29,2.771 -1.23,-0.101 -2.74,-0.37 -3.8,-0.691 -1.03,-0.309 -2.62,-1 -4.5,-0.69 -0.74,0.12 -1.75,0.921 -2.59,0.69 -0.9,-0.259 -0.92,-1.41 -1.03,-3.46 -0.56,-10.02 0,-21.27 0,-32.49 0,-3.88 -0.69,-9.51 0.17,-11.75 0.53,-1.37 2.19,-1.46 2.59,-2.93 0.18,-0.69 -0.21,-1.83 0,-2.589 0.47,-1.75 2.11,-1.401 2.77,-3.12 0.33,-0.901 -0.06,-1.831 0.17,-2.59 0.47,-1.651 2.25,-1.781 2.76,-2.941 -0.18,-10.45 0.98,-24.5 0.18,-34.559 -0.19,-2.281 -1.57,-3.83 -2.94,-5.351 -0.24,-1.97 0.3,-4.37 0,-6.569 -0.11,-0.731 -0.58,-1.351 -0.69,-2.071 -0.56,-3.57 -0.62,-7.969 0,-10.889 0.51,-2.441 2.76,-3.681 3.45,-5.7 0.07,-2.241 -0.16,-4.771 0.18,-6.741 H 83.98 v 8.12 c -0.41,1.4 -3.14,2.63 -3.62,5.01 -0.34,1.64 0.53,3.861 0,5.531 -0.47,1.439 -2.32,2.469 -2.42,3.629 -0.11,1.071 0.44,2.21 1.03,2.76 2.21,-0.01 4.26,0.13 6.22,0.351 1.66,2.149 1.04,5.599 1.04,8.639 0,9.6 0.14,20.08 -0.17,29.031 -3.06,-0.151 -6.29,1.019 -9.68,0.17 -1.22,-0.3 -1.98,-1.971 -3.11,-2.241 -2.8,-0.679 -6.52,0 -9.68,0 -3.01,0 -6.91,-0.769 -9.67,0 -1.02,0.281 -1.6,1.93 -2.94,2.241 -2.28,0.54 -5.09,-0.92 -6.39,1.04 -0.29,0.859 -0.34,2.83 0.17,3.46 2.43,0.279 4.11,-0.26 6.04,0.17 1.36,0.309 2.29,2.16 3.81,2.589 2.49,0.71 4.35,-0.16 7.77,0.18 1.92,0.471 3.34,2.5 5.36,2.931 3.76,0.809 7.43,-1.321 11.58,-0.691 1.19,1 1.65,2.731 3.11,3.46 2.9,-0.51 6.17,2.05 6.22,3.63 0.04,1.57 -3.01,2.691 -1.73,5.181 -1.06,1.71 -4.15,1.849 -3.63,5.529 0.34,2.37 2.44,4.78 2.94,8.29 0.47,3.38 -0.51,7.431 0.69,10.721 0.58,1.599 1.99,2.809 2.25,4.319 0.7,4.09 -0.35,7.731 0.69,10.88 0.43,1.34 1.92,2.41 2.07,3.63 0.34,2.77 -2.1,3.96 -3.45,5.36 -1.32,1.361 -2.21,3.05 -4.15,3.46 -1.51,0.3 -3.26,0.151 -4.32,0.691 -1.09,0.54 -1.41,1.979 -2.42,1.899 -0.89,-0.069 -2.8,-3.069 -3.8,-3.8 -2.38,-1.74 -4.58,-1.62 -8.64,-1.729 -1.06,0.599 -1.67,1.75 -1.21,3.109 0.34,1.04 1.9,0.84 1.9,1.901 -0.68,1.219 -2.08,1.479 -2.08,2.939 0,2.16 5.03,5.2 8.65,4.66 1.58,0.361 2.18,2.391 3.97,2.941 1.94,0.599 4.33,-0.04 6.22,0.519 1.52,0.45 1.98,1.931 3.46,2.07 0.44,0.43 1.8,-0.08 2.24,0.35 1.18,0.91 0.85,2.891 1.56,4.15 0.5,0.901 1.8,1.21 1.38,2.241 -2.04,0.79 -5.52,0.13 -8.12,0.349 -2.05,-1.62 -3.92,-4.4 -7.26,-5.009 -2.4,-0.451 -5.25,-0.331 -7.95,-0.521 -2.77,-0.199 -5.55,-0.34 -8.29,0 -1.15,0.78 -1.24,2.04 -2.77,2.591 -1.82,0.649 -4.36,0.119 -6.22,1.039 -2.71,4.6 -2.98,10.461 -7.77,12.961 -4.13,2.139 -11.11,1.019 -17.11,0.859 -1.84,1.51 -2.19,5.481 -1.56,7.78 0.71,2.581 4.94,3.85 7.26,5.18 1.32,0.76 2.2,1.88 3.11,2.07 0.72,0.161 1.84,-0.12 2.25,0 1,0.3 2.07,2.1 3.11,3.291 2.4,2.75 3.95,4.219 6.39,6.389 1.18,1.05 3.03,2.12 3.29,3.28 0.17,0.821 -0.31,1.59 -0.18,2.25 0.29,1.531 2.46,1.701 2.08,3.63 -1.67,0.79 -2.77,-1.04 -3.63,-1.9 -1.02,-1.02 -2.23,-2.05 -3.28,-3.109 -1.44,-1.431 -4.51,-5.701 -6.57,-6.22 -0.98,-0.25 -2.04,0.17 -2.94,-0.181 -1.24,-0.47 -1.35,-2.13 -2.59,-2.76 -3.92,0.75 -8.8,-1 -12.44,0 -1.62,0.451 -1.98,2.651 -3.98,2.59 -2.06,-0.059 -3.48,-3.12 -4.66,-4.32 -1.4,-1.409 -3.45,-3.659 -5.71,-3.449 -0.88,0.08 -1.47,0.8 -2.24,1.38 -1.97,1.45 -4.7,2.839 -5.19,5.349 -1.17,6.09 2.76,9.101 5.36,11.75 2.9,2.97 6.19,6.441 9.5,9.16 1.55,1.27 3.88,3.47 5.54,3.8 4.01,0.84 6.05,-0.33 7.6,-1.899 1.48,0.649 1.92,2.21 3.11,3.63 0.93,1.13 3.03,2.229 3.46,3.799 0.2,0.781 -0.08,1.51 0.17,2.25 0.47,1.48 2.53,3.1 4.15,3.63 0.62,0.21 1.33,0.12 1.9,0.34 3.53,1.41 3.77,6.681 9.33,5.53 1.18,0.42 1.31,2.52 2.59,2.94 1.03,0.35 2.22,-0.25 3.11,0 1.78,0.511 2.57,3.881 5.87,2.94 1.28,0.68 0.9,2.25 2.42,2.76 1.33,0.46 3.04,-0.269 4.32,0.7 -0.11,1.96 0.22,4.37 -0.17,6.04 -1.27,1.31 -1.99,-0.13 -3.8,0.35 -1.48,0.4 -1.66,2.57 -3.28,2.761 -1.78,0.219 -2.33,-1.521 -4.15,-2.071 -0.74,-0.219 -1.59,0.09 -2.42,-0.17 -1.79,-0.57 -2.69,-3.179 -4.15,-3.46 -1.01,-0.179 -1.98,0.35 -2.59,0.17 -1.39,-0.41 -1.57,-2.67 -2.94,-3.11 -1.79,-0.56 -4.74,0.71 -7.08,0.521 -1.69,-0.13 -3.27,-1.491 -5.19,-1.901 -0.75,-0.16 -1.6,0.021 -2.42,-0.17 -1.67,-0.389 -3.06,-1.439 -4.14,-1.38 -1.7,0.08 -3.01,2.21 -4.49,2.071 -4.02,0.609 -5.42,-1.181 -8.3,-0.691 -0.97,0.16 -1.66,1.271 -2.77,1.55 -0.86,0.221 -1.79,-0.08 -2.59,0.181 -1.39,0.449 -3.25,2.63 -3.63,3.279 -0.48,0.82 -0.43,1.9 -0.69,3.11 -0.21,1.01 -0.72,1.59 -0.69,2.42 0.07,2.191 1.69,3.12 3.92,3.491 3.94,0.649 9.81,-0.451 12.5,0.479 1.59,0.57 1.65,2.65 3.63,3.11 3.31,0.77 6.87,-1.7 10.54,-0.69 0.7,2.2 2.78,3.32 5.01,3.631 2.48,0.349 4.82,-0.671 7.43,-0.521 2.29,0.14 3.31,2.01 5.01,2.6 3.09,1.07 6.91,0.41 10.89,0.86 1.79,2.58 0.44,8.311 0.86,12.271 0.53,1.229 1.64,2.319 2.76,3.8 1.87,2.46 2.28,5.019 7.26,3.979 2.3,0.971 2.84,4.78 1.21,6.91 h -3.45 c -1.56,-0.75 -2.84,-1.78 -3.98,-2.939 -2.03,-5.351 -4.23,-10.74 -9.33,-12.101 -0.44,-0.109 -1.01,0.13 -1.55,0 -1.16,-0.26 -1.88,-1.08 -2.77,-1.03 -0.86,0.051 -1.65,1.08 -2.59,1.03 -0.89,-0.04 -1.78,-1.51 -2.77,-1.55 -1.54,-0.059 -3.43,1.911 -5.7,2.241 -2.15,0.319 -8.48,0.569 -10.37,0 -1.41,-0.411 -1.55,-2.231 -3.45,-2.76 -5.28,-1.351 -8.58,-5.801 -10.89,-10.021 -0.7,-1.29 -1.2,-3.04 -2.25,-3.799 -0.8,-0.59 -1.77,-0.491 -2.93,-1.041 -0.98,-0.459 -1.82,-1.389 -2.59,-1.73 -0.87,-0.38 -1.82,-0.62 -2.82,-0.779 -4.46,-0.681 -10.08,0.42 -15.85,-0.08 -1.19,0.769 -1.77,2.139 -2.94,2.929 -3.15,0.39 -6.29,-0.509 -8.63,0 -2.29,0.51 -4.52,4.25 -3.46,7.09 0.4,1.09 4.62,4.13 5.53,4.66 1.12,0.67 3.27,0.91 4.66,1.91 2.19,1.56 3.5,4.81 5.88,5.35 0.9,0.21 1.84,-0.14 2.77,0 2.29,0.37 3.98,2.36 6.04,2.771 2.78,0.549 4.68,0.58 6.57,1.719 0.85,0.521 1.42,1.38 2.42,1.91 2.21,1.161 4.75,1.44 6.57,2.93 h 2.07 c 0.63,0.74 1.44,0.29 2.59,0.691 1.42,0.509 3.44,2.33 5.36,3.46 0.86,0.509 1.94,1.08 2.94,1.559 0.97,0.471 2.59,0.771 3.1,1.38 0.41,0.49 0.9,1.94 1.04,2.761 0.24,1.469 -0.18,3.34 0,5.189 -1.25,1.861 -3.87,2.351 -7.26,2.071 -1.44,-0.72 -1.86,-2.76 -3.45,-3.281 -2.71,-0.88 -5.47,0.45 -8.64,0.34 -1.33,0.87 -2.9,1.49 -5.01,1.561 -1.47,1.819 -2.35,4.219 -5.53,4.319 -1.51,0.801 -2,2.61 -1.73,5.181 1.94,2.319 5.8,2.729 7.09,5.7 -1.71,2.349 -4.46,3.63 -8.65,3.46 -1.55,-1.271 -2.68,-2.96 -4.31,-4.151 -0.92,-0.589 -1.79,-0.639 -2.94,-1.03 -0.41,-0.13 -0.67,-0.58 -1.04,-0.689 -1.89,-0.601 -3.15,-0.391 -5.18,-0.701 -0.74,-0.1 -1.37,-0.58 -2.08,-0.69 -1.32,-0.189 -2.71,0.2 -3.97,0 -0.87,-0.13 -1.41,-0.85 -2.25,-0.519 -0.73,0.139 -0.34,1.389 -0.69,1.91 -0.68,1.599 -3.71,2.29 -3.45,4.319 0.4,3.36 7.41,0.311 9.33,2.761 0.49,1.25 -0.07,2.699 0.17,4.149 0.07,0.47 0.58,1.061 0.69,1.731 0.29,1.769 0.44,3.5 1.38,4.139 1.27,0.87 3.04,-0.05 5.01,0.35 1.11,0.23 2.77,1.5 4.67,0.86 1.89,0.39 4.17,3.63 2.07,5.191 C -5.33,0.92 -7.2,0.48 -8.46,0 c -1.29,0.74 -1.82,2.23 -2.77,3.29 -2.2,0 -3.13,1.24 -4.32,2.24 -2.15,0.33 -3.73,1.231 -5.36,2.08 -0.9,0.031 -2.02,-0.179 -2.24,0.52 0.9,1.641 2.91,1.9 4.32,2.931 1.45,1.08 2.3,2.809 3.8,3.799 2.4,0.8 4.13,3.241 6.57,5.02 1.7,1.25 4.21,2.04 6.56,3.11 2.22,1 4.5,2.571 6.74,2.93 1.55,0.261 3.31,-0.25 4.84,0 0.56,0.101 1.1,0.601 1.73,0.69 0.53,0.09 1.16,-0.13 1.72,0 1.6,0.38 3.49,1.8 5.19,2.08 1.25,0.201 2.59,-0.219 3.63,0 2.84,0.6 5.36,3.84 3.8,6.741 -1.61,2.969 -4.37,5.049 -6.57,7.25 1.11,6.299 -9.39,0.989 -11.57,3.979 1.08,1.51 2.67,2.5 3.62,4.151 0.73,2.25 0.01,3.089 0,5.7 -1.38,1.55 -2.68,3.199 -2.93,5.869 -2.15,0.98 -4.54,1.7 -7.95,1.391 -1.48,1.109 -4.34,0.849 -6.91,0.859 -3.45,0.891 -6.98,1.671 -10.89,2.07 -0.6,0.441 -0.88,0.571 -1.73,0.7 -4.55,0.691 -10.82,-0.52 -15.72,0 -1.47,1.18 -2.47,2.83 -3.46,4.491 1.21,1.139 0.35,4.359 0.86,6.219 2.6,0.861 5.15,1.77 7.09,3.281 3,0.45 5.95,0.96 9.68,0.689 1.8,0.36 3.14,2.36 5.18,2.771 3.48,0.7 7.75,-0.811 10.54,0.17 2.14,0.759 3.14,3.719 4.84,4.149 3.52,0.88 7.49,-0.67 10.89,0 1.61,0.55 1.69,3.121 3.45,3.63 0.97,0.281 2.4,-0.44 3.46,0.34 1.12,4.82 -2.35,7.45 -1.04,12.441 0.68,1.009 1.17,1.52 2.08,1.73 2.95,0.679 7.23,0 10.88,0 3.41,0 8.04,-0.851 10.89,0.169 0.87,0.32 1.52,2.25 2.59,2.601 0.62,0.199 1.65,-0.101 2.42,0 1.88,0.23 3.48,1.139 5.87,0.69 0.67,0.969 1.85,1.369 1.73,2.759 -0.08,0.9 -1.5,2.08 -2.42,2.77 -2.11,1.551 -5.84,2.29 -7.08,4.32 -2.16,-0.5 -2.91,-2.99 -4.84,-3.46 -1.61,-0.389 -4.08,0 -6.22,0 H 20.05 c -2.15,0 -4.8,0.43 -6.4,0 -1.22,-0.32 -3.01,-2.34 -3.97,-3.63 -1.09,-1.44 -1.41,-3.52 -2.59,-4.84 -0.68,-0.74 -2.06,-1.18 -2.94,-2.07 -0.78,-0.78 -1.17,-1.88 -1.9,-2.42 -0.68,-0.49 -2.47,-1.4 -3.11,-1.55 m 156.9,135.3 c 0.54,-2.46 -0.4,-6.389 0.87,-8.119 4.4,-2.211 11.819,-1.431 18.31,-1.56 1.69,-1.131 3.16,-2.48 4.84,-3.631 0.12,-3.61 -0.43,-7.92 0.69,-10.539 0.61,-0.371 0.89,-1.191 1.56,-1.731 0.46,-0.37 1.29,-0.43 1.9,-0.86 0.57,-0.4 0.769,-1.09 1.21,-1.38 0.96,-0.64 2.14,-0.75 3.45,-0.69 2.06,1.26 2.1,3.82 4.67,4.32 0.67,0.13 1.59,-0.25 2.42,0 1.58,0.47 1.75,2.48 2.76,3.45 1.16,0.11 2.16,0.38 2.77,1.04 0.61,3.32 -1.24,5.771 -3.63,6.22 -0.64,0.12 -1.53,-0.199 -2.25,0 -1.98,0.56 -3.16,3.26 -4.66,3.97 -0.2,1.36 -1.18,1.95 -1.04,3.63 -1.83,1.23 -2.87,3.241 -3.11,6.05 -1.83,0.04 -3.88,0.35 -6.05,0 -0.65,-0.099 -1.21,-0.579 -1.9,-0.69 -4.23,-0.67 -8.59,0.671 -12.79,0.69 -1.39,1.38 -1.75,3.16 -3.45,3.63 -1.34,0.37 -3.93,0.25 -5.36,0 -1.2,-0.2 -1.88,-0.89 -2.89,-0.89 -0.131,0 -0.25,0.01 -0.39,0.03 -1.67,0.26 -3.17,2.29 -5.01,2.93 -1.8,0.64 -3.93,0.18 -5.88,0.701 -1.02,0.27 -1.81,1.739 -3.11,2.239 -0.36,0.14 -0.91,0.02 -1.38,0.18 -2.16,0.69 -4.611,0.55 -7.78,0.51 -1.32,2 -7.37,5.111 -7.26,0.35 0.05,-2.27 2.24,-2.08 3.81,-3.279 1.78,-1.391 2.42,-3.271 3.8,-4.841 h 5.01 c 0.97,-0.82 2.04,-1.54 3.28,-2.079 1.96,-0.5 3.8,0.519 4.84,0.699 3.15,0.52 6.71,0.04 9.85,-0.219 0.66,-0.06 1.29,-0.101 1.9,-0.131 m 8.99,-279.76 c 0.36,-0.16 1.13,0.121 1.72,0 1.04,-0.21 1.34,-0.77 2.08,-0.7 0.97,0.111 1.41,1.101 2.24,1.21 0.43,-1.859 2.24,-2.62 4.32,-1.899 1.26,1.279 1.83,3.25 1.56,6.05 -0.98,1.729 -3.36,1.149 -5.36,1.559 -1.13,0.231 -2.41,1.45 -4.14,0.861 -0.69,0.53 -1.45,0.979 -1.56,2.07 -1.01,-0.151 -1.09,0.649 -1.9,0.699 -0.83,-0.39 -1.67,-0.75 -2.761,-0.87 -1.369,-0.819 -2.189,-4.819 -0.519,-6.05 0.84,0.03 1.82,-0.09 2.42,0.181 0.36,-0.881 0.599,-2.571 1.9,-3.111 M 26.96,35.25 c 2.37,-3.979 6.87,-1.46 8.64,1.391 1.59,-0.05 2.63,0.469 2.42,2.239 -1.06,0.91 -2.54,1.69 -3.98,1.9 -3.48,0.531 -6.66,-2.509 -7.08,-5.53 m 92.28,190.78 c 0.3,-0.15 0.87,0.09 1.21,0 0.59,-0.17 0.81,-0.62 1.2,-0.69 2.09,-0.36 4.11,-0.049 5.53,0.511 1.35,-2.161 6.17,-0.851 9.33,-1.211 0.34,0.941 0.11,2.43 0.18,3.631 -1.17,1.489 -2.54,2.77 -5.36,2.589 -1.76,1.29 -2.87,3.25 -6.05,3.11 -0.39,0.591 -0.93,1.04 -1.03,1.91 -1.9,1.02 -5.15,-0.859 -7.61,0.34 -0.18,0.45 -0.21,1.06 -0.17,1.73 -2.01,1.71 -5.46,-0.61 -4.84,-3.63 0.45,-2.219 5.29,-7.23 7.61,-8.29 m 19.87,35.25 c 1.15,0.1 2.04,-1 2.59,0.17 -0.94,2.591 -3.08,3.96 -5.19,5.361 -0.47,-0.23 -0.84,-0.54 -1.38,-0.691 h -5.36 c -0.21,-0.36 -0.5,-0.65 -0.86,-0.87 0.24,-1.93 -0.431,-2.95 0.17,-3.97 0.64,-1.08 5.37,-1.85 7.43,-1.39 1.16,0.27 1.77,1.31 2.6,1.39 M 177.12,-5.35 c 0.59,-1.129 2.06,-1.389 2.77,-2.42 -0.17,-3.009 2.98,-2.65 4.32,-1.209 -0.12,3 0.22,6.439 -0.18,9.16 -1.01,0.54 -1.9,1.21 -2.59,2.069 -1.6,3.07 -4.78,4.54 -7.95,6.051 -1.37,-0.45 -1.511,-1.561 -2.24,-2.591 -0.26,-0.359 -0.89,-0.619 -1.21,-1.04 -1.28,-1.69 -2.33,-3.77 -3.63,-4.149 -1.13,-0.321 -2.28,0.28 -3.11,0 -1.2,-0.391 -1.49,-2.571 -2.77,-2.941 -2.15,-0.609 -6,1.061 -5.01,-3.109 1.31,-0.361 2.43,-0.901 3.81,-1.21 0.76,-3.7 6.42,-2.37 10.88,-2.591 0.53,1.37 1.18,2.62 2.25,3.46 2.21,0.091 3.31,1.29 4.32,2.591 0.29,-0.5 0.4,-1.2 0.34,-2.071 M 67.4,184.73 c -0.6,0.101 -1.32,-0.149 -1.91,0 -0.61,0.14 -1.11,0.76 -1.73,0.86 -4.78,0.8 -7.25,-5.31 -7.6,-9.68 1.56,-1 2.39,-3.389 4.15,-3.8 2.73,-0.63 3.73,2.61 6.91,2.08 1.05,0.851 1.32,2.48 2.25,3.45 1.14,0.35 2.89,0.1 4.32,0.18 0.52,1.531 1.58,3.86 -0.18,4.83 h -2.07 c -1.35,0.59 -2.54,1.8 -4.14,2.08 m -2.08,-349.919 c -0.39,-0.071 -1,0.129 -1.38,0 -1.31,-0.441 -4.11,-2.38 -4.15,-3.46 -0.04,-1.071 1.83,-2.441 2.59,-3.111 1.25,-1.099 1.94,-2.05 3.46,-2.42 1.36,0.611 0.5,2.01 0.86,3.111 0.59,1.79 3.76,2.479 2.94,5.529 2.05,2.66 3.96,5.48 7.09,7.091 3.27,0.29 5.69,1.439 6.22,4.489 -3.32,0.62 -8.94,0.66 -11.58,-0.519 -1.25,-2.451 -0.25,-3.901 -0.87,-6.05 -0.51,-1.771 -3.1,-4.25 -5.18,-4.66 M 58.24,141.53 c -0.77,0.15 -1.56,-0.13 -2.25,0 -0.53,0.1 -1.17,0.75 -1.73,0.86 -1.03,0.22 -3.18,-0.289 -5.01,0 -1.18,0.191 -1.84,0.76 -2.59,0.691 -0.62,-0.06 -1.95,-0.75 -2.07,-0.861 -1.01,-0.869 -2.41,-4.179 -2.77,-5.53 -0.11,-0.41 0.12,-1.02 0,-1.56 -0.12,-0.54 -0.63,-0.96 -0.69,-1.38 -0.19,-1.13 0.14,-2.479 0,-3.8 0.85,-0.77 1.12,-1.71 2.24,-1.9 2.04,-0.34 3.63,2.29 6.4,1.551 3.47,2.089 6.41,-1.391 10.71,-0.691 0.77,0.84 1.86,0.39 3.11,0.691 0.26,0.069 0.6,0.599 1.04,0.699 2.02,0.43 4,1.42 4.32,2.59 0.56,2.1 -1.19,4.25 -2.25,5.01 -1.23,0.88 -3.15,1.21 -4.49,1.73 -1.53,0.59 -2.93,1.69 -3.97,1.9 M 70.68,24.19 c -0.38,-0.07 -0.89,0.1 -1.21,0 -1.1,-0.32 -2.09,-1.11 -3.29,-1.379 -1.24,-0.271 -1.51,-0.42 -2.24,-0.691 -2.61,-0.93 -4.48,-1.13 -6.39,-2.24 H 55.99 C 55.24,18.721 53.43,18.63 52.53,17.63 51.98,12.71 51.94,7.28 45.28,8.471 41.53,6.91 37.66,4.57 39.06,-1.55 c 2.62,-1.519 5.46,-2.83 5.53,-6.91 1.24,-0.529 2.22,-1.069 3.62,-0.87 0.58,0.091 3.59,1.141 3.98,1.391 2.19,1.389 3.4,4.089 5.01,5.519 7.26,0.41 15.26,0.061 22.81,0.181 3.35,0.929 1.08,6.199 1.9,9.5 0.14,0.58 0.66,1.58 0.86,1.899 0.34,0.521 0.98,1.03 1.56,1.38 1.49,-1.88 3.44,-0.87 5.01,0.521 1.61,1.439 3.04,3.79 4.32,4.5 1.19,0.299 1.87,1.129 2.59,1.899 v 3.62 c -1.1,0.981 -2.94,1.21 -5.18,1.04 -0.77,0.74 -1.36,1.641 -2.42,2.07 -2.33,0.571 -4.86,0.911 -7.95,0.701 -1.22,1.089 -3.74,0.87 -6.05,0.859 -0.58,-0.17 -0.8,-0.689 -1.38,-0.859 -1.37,0.359 -1.81,-0.54 -2.59,-0.701 m 31.45,257.82 c 0.56,3.12 -3.26,0.92 -5.88,1.39 -0.67,-0.83 -2.28,-0.72 -3.8,-0.7 -0.99,-1.05 -2.31,-1.04 -3.97,-1.38 -0.55,-0.11 -1.04,-0.61 -1.56,-0.69 -0.73,-0.109 -1.52,0.15 -2.25,0 -0.64,-0.13 -1.24,-0.74 -1.9,-0.859 -2.19,-0.411 -3.25,0 -4.66,-0.69 -2.12,-1.051 -3.87,-2.421 -4.67,-4.5 0.98,-1.321 2.67,-1.941 5.19,-1.721 3.08,1.69 6.53,3.01 10.02,4.31 h 1.9 c 1.01,0.86 3.24,0.84 5.18,1.391 1.39,0.389 6.19,2.339 6.4,3.449 m -7.95,3.801 c 3.23,-0.851 4.52,1.829 5.01,4.319 -0.24,0.69 -0.68,1.181 -0.86,1.911 -3.6,1.73 -6.56,-0.491 -6.23,-4.671 1.01,-0.46 1.13,-1.3 2.08,-1.559 M 87.96,-115.08 c 1.11,0.33 1.13,1.75 1.21,3.11 0.8,0.92 1.82,1.63 1.9,3.281 -3.21,2.099 -4.47,-4.451 -3.11,-6.391 m -1.04,-2.069 c -0.85,0.529 -1.79,-0.111 -1.73,-1.04 0.59,-0.55 1.83,-0.101 1.73,1.04"
         style="fill:#1a2217;fill-opacity:1;fill-rule:nonzero;stroke:none"
         transform="matrix(1.3333333,0,0,-1.3333333,796.38667,695.81387)"
         clip-path="url(#clipPath7)"
         id="path8" /></g></g><g
     inkscape:groupmode="layer"
     id="layer3"
     inkscape:label="Border"><path
       sodipodi:type="star"
       style="fill:none;fill-opacity:1;stroke:#000000;stroke-width:11.3386;stroke-opacity:1"
       id="path1"
       inkscape:flatsided="true"
       sodipodi:sides="6"
       sodipodi:cx="259.8313"
       sodipodi:cy="256.3483"
       sodipodi:r1="237.87492"
       sodipodi:r2="206.00572"
       sodipodi:arg1="0.52786366"
       sodipodi:arg2="1.0514624"
       inkscape:rounded="0"
       inkscape:randomized="1.3877788e-16"
       d="M 465.3279,376.16327 258.81679,494.22106 53.320193,374.40609 54.334699,136.53333 260.8458,18.475537 466.34241,138.2905 Z"
       transform="translate(-6.2693878)" /><g
       inkscape:groupmode="layer"
       id="layer4"
       inkscape:label="Text"><rect
         style="display:inline;fill:#000000;fill-opacity:1;stroke:none;stroke-width:11.3386;stroke-opacity:1"
         id="rect1"
         width="479.95645"
         height="153.25169"
         x="16.021769"
         y="210.37279" /><text
         xml:space="preserve"
         id="text1"
         style="font-size:85.3333px;font-family:Arial;-inkscape-font-specification:Arial;text-align:start;writing-mode:lr-tb;direction:ltr;white-space:pre;shape-inside:url(#rect2);display:inline;fill:#079100;fill-opacity:1;stroke:none;stroke-width:11.3386;stroke-opacity:1"
         transform="translate(2.0897959,-18.808163)"><tspan
           x="32.042969"
           y="303.25888"
           id="tspan5"><tspan
             style="font-family:Dubai;-inkscape-font-specification:Dubai;fill:#ffffff"
             id="tspan2">CASCADIAN</tspan></tspan></text><text
         xml:space="preserve"
         id="text2"
         style="font-style:normal;font-variant:normal;font-weight:normal;font-stretch:normal;font-size:56px;font-family:Dubai;-inkscape-font-specification:Dubai;text-align:start;writing-mode:lr-tb;direction:ltr;white-space:pre;shape-inside:url(#rect3);display:inline;fill:#ffffff;fill-opacity:1;stroke:none;stroke-width:11.3386;stroke-opacity:1"
         transform="translate(8.3591837,4.1795918)"><tspan
           x="18.808594"
           y="338.36678"
           id="tspan6">DYNASTIC LEAGUE</tspan></text></g></g></svg>
